<?xml version="1.0" encoding="UTF-8"?>
<svg version="1.1" xmlns="http://www.w3.org/2000/svg" width="528" height="421">
<path d="M0 0 C174.24 0 348.48 0 528 0 C528 138.93 528 277.86 528 421 C353.76 421 179.52 421 0 421 C0 282.07 0 143.14 0 0 Z " fill="#0A092D" transform="translate(0,0)"/>
<path d="M0 0 C0.9075 0.185625 1.815 0.37125 2.75 0.5625 C5.68314324 0.95734621 7.2644657 0.94691572 10 0 C10.66 2.31 11.32 4.62 12 7 C13.98491642 6.73323796 13.98491642 6.73323796 16 6 C16.33 5.01 16.66 4.02 17 3 C17.99 3 18.98 3 20 3 C20.33 2.01 20.66 1.02 21 0 C21 0.66 21 1.32 21 2 C21.721875 1.731875 22.44375 1.46375 23.1875 1.1875 C26 1 26 1 28.8125 3.4375 C29.534375 4.283125 30.25625 5.12875 31 6 C31.66 4.35 32.32 2.7 33 1 C34.12643921 1.05329468 34.12643921 1.05329468 35.27563477 1.10766602 C38.70431543 1.26605113 42.13336198 1.41436124 45.5625 1.5625 C46.74392578 1.61857422 47.92535156 1.67464844 49.14257812 1.73242188 C54.93932412 1.97598263 60.29331891 2.03757838 66 1 C72.62017449 0.56472859 78.60536538 1.27005054 85 3 C85 5.64 85 8.28 85 11 C82.36 11 79.72 11 77 11 C77 18.59 77 26.18 77 34 C74.03 34 71.06 34 68 34 C68 26.74 68 19.48 68 12 C65.0609375 12.433125 65.0609375 12.433125 62.0625 12.875 C60.96035156 13.03742188 59.85820312 13.19984375 58.72265625 13.3671875 C57.82417969 13.57601562 56.92570312 13.78484375 56 14 C54.5447223 16.9105554 55.36483339 18.95849052 55.9375 22.125 C56.13214844 23.22070312 56.32679688 24.31640625 56.52734375 25.4453125 C56.68332031 26.28835937 56.83929688 27.13140625 57 28 C57.66 28 58.32 28 59 28 C59.6875 30.3125 59.6875 30.3125 60 33 C58.37926772 35.27730506 57.35957224 35.92296193 54.61157227 36.51171875 C51.59547047 36.70139412 48.58186207 36.87073068 45.5625 37 C44.51255859 37.07605469 43.46261719 37.15210938 42.38085938 37.23046875 C39.49720466 37.36647286 36.85542136 37.43005745 34 37 C31.27734375 34.5 31.27734375 34.5 30 32 C29.34 32.99 28.68 33.98 28 35 C25.25 35.3984375 25.25 35.3984375 22 35.375 C20.9275 35.38273437 19.855 35.39046875 18.75 35.3984375 C17.8425 35.26695312 16.935 35.13546875 16 35 C14 32 14 32 14 29 C13.01 29 12.02 29 11 29 C11 29.66 11 30.32 11 31 C10.34 31 9.68 31 9 31 C9 32.32 9 33.64 9 35 C7.54176788 35.0270043 6.08339325 35.04639787 4.625 35.0625 C3.40683594 35.07990234 3.40683594 35.07990234 2.1640625 35.09765625 C0 35 0 35 -2 34 C-2.625 31.9375 -2.625 31.9375 -3 30 C-3.268125 30.61875 -3.53625 31.2375 -3.8125 31.875 C-5 34 -5 34 -8 36 C-11.13671875 36.1953125 -11.13671875 36.1953125 -14.6875 36.125 C-15.86699219 36.10695312 -17.04648438 36.08890625 -18.26171875 36.0703125 C-19.61716797 36.03550781 -19.61716797 36.03550781 -21 36 C-21 35.34 -21 34.68 -21 34 C-22.11375 33.71125 -23.2275 33.4225 -24.375 33.125 C-28 32 -28 32 -30 30 C-29.625 27.875 -29.625 27.875 -29 26 C-26.6875 25.375 -26.6875 25.375 -24 25 C-23.01 25.66 -22.02 26.32 -21 27 C-18.67612053 27.39387788 -16.34206251 27.73486085 -14 28 C-15.69763164 23.92568406 -17.56397696 22.52620967 -21.5 20.875 C-22.2734375 20.58367187 -23.046875 20.29234375 -23.84375 19.9921875 C-26.17990203 18.91721899 -27.45150104 18.05019333 -29 16 C-29.73364032 12.9118861 -29.68200555 10.09697601 -29 7 C-25.94103098 3.94103098 -23.96736533 3.10951306 -19.6875 2.625 C-10.57690531 3.55150115 -10.57690531 3.55150115 -7 5 C-4.82223925 8.39730677 -5 11.05492251 -5 15 C-5.66 15 -6.32 15 -7 15 C-7 15.99 -7 16.98 -7 18 C-6.34 18.33 -5.68 18.66 -5 19 C-3.875 21.0625 -3.875 21.0625 -3 23 C-2.98018066 22.40985107 -2.96036133 21.81970215 -2.93994141 21.21166992 C-2.84465341 18.53649904 -2.73499061 15.86210502 -2.625 13.1875 C-2.57859375 11.7943457 -2.57859375 11.7943457 -2.53125 10.37304688 C-2.49257812 9.48037109 -2.45390625 8.58769531 -2.4140625 7.66796875 C-2.3826416 6.84578857 -2.3512207 6.0236084 -2.31884766 5.17651367 C-2 3 -2 3 0 0 Z " fill="#08284D" transform="translate(141,193)"/>
<path d="M0 0 C1.65 0 3.3 0 5 0 C5 0.66 5 1.32 5 2 C9.61507774 3.04214691 9.61507774 3.04214691 14 2 C14.33 2.66 14.66 3.32 15 4 C15.66 3.34 16.32 2.68 17 2 C21.79569179 1.71790048 26.26718752 2.27804555 31 3 C32.17949219 2.91685547 32.17949219 2.91685547 33.3828125 2.83203125 C36.36019942 2.73642708 38.23371379 2.8434248 41 4 C43.57970568 7.21068195 45.50393863 10.45806425 47.40625 14.09375 C48.68508985 17.07971575 48.68508985 17.07971575 51 18 C51 13.38 51 8.76 51 4 C53.64 4 56.28 4 59 4 C59 13.9 59 23.8 59 34 C56.36 34 53.72 34 51 34 C50.01 31.525 50.01 31.525 49 29 C48.34 29 47.68 29 47 29 C47 28.34 47 27.68 47 27 C45.68 26.67 44.36 26.34 43 26 C43.020625 27.11375 43.04125 28.2275 43.0625 29.375 C43 33 43 33 42 35 C39.56640625 35.484375 39.56640625 35.484375 36.5625 35.75 C35.07943359 35.89695312 35.07943359 35.89695312 33.56640625 36.046875 C31 36 31 36 29 34 C28.67 34.33 28.34 34.66 28 35 C26.39735886 35.07298002 24.79166268 35.08363831 23.1875 35.0625 C22.31480469 35.05347656 21.44210937 35.04445312 20.54296875 35.03515625 C19.70378906 35.02355469 18.86460937 35.01195312 18 35 C16.68 35 15.36 35 14 35 C10.33333333 35 6.66666667 35 3 35 C3 37.31 3 39.62 3 42 C1.515 41.505 1.515 41.505 0 41 C0 39.68 0 38.36 0 37 C-0.66 37 -1.32 37 -2 37 C-2 36.34 -2 35.68 -2 35 C-6.29 35 -10.58 35 -15 35 C-15 24.11 -15 13.22 -15 2 C-11 2 -7 2 -3 2 C-3.33 2.66 -3.66 3.32 -4 4 C-3.01 4 -2.02 4 -1 4 C-0.67 2.68 -0.34 1.36 0 0 Z " fill="#1A2B34" transform="translate(354,193)"/>
<path d="M0 0 C1.12643921 0.05329468 1.12643921 0.05329468 2.27563477 0.10766602 C5.70431543 0.26605113 9.13336198 0.41436124 12.5625 0.5625 C13.74392578 0.61857422 14.92535156 0.67464844 16.14257812 0.73242188 C21.93932412 0.97598263 27.29331891 1.03757838 33 0 C39.62017449 -0.43527141 45.60536538 0.27005054 52 2 C52 4.64 52 7.28 52 10 C49.36 10 46.72 10 44 10 C44 17.59 44 25.18 44 33 C41.03 33 38.06 33 35 33 C35 25.74 35 18.48 35 11 C32.0609375 11.433125 32.0609375 11.433125 29.0625 11.875 C27.96035156 12.03742188 26.85820312 12.19984375 25.72265625 12.3671875 C24.82417969 12.57601562 23.92570312 12.78484375 23 13 C21.5447223 15.9105554 22.36483339 17.95849052 22.9375 21.125 C23.13214844 22.22070312 23.32679688 23.31640625 23.52734375 24.4453125 C23.68332031 25.28835937 23.83929688 26.13140625 24 27 C24.66 27 25.32 27 26 27 C26.625 29.375 26.625 29.375 27 32 C25 34 25 34 22.58569336 34.24291992 C21.59706299 34.23881104 20.60843262 34.23470215 19.58984375 34.23046875 C18.51798828 34.22853516 17.44613281 34.22660156 16.34179688 34.22460938 C15.21837891 34.21236328 14.09496094 34.20011719 12.9375 34.1875 C11.24657227 34.1865332 11.24657227 34.1865332 9.52148438 34.18554688 C1.14013317 34.14013317 1.14013317 34.14013317 0 33 C-0.15841119 31.04915024 -0.25124302 29.09290449 -0.31640625 27.13671875 C-0.35830078 25.93982422 -0.40019531 24.74292969 -0.44335938 23.50976562 C-0.48267578 22.24841797 -0.52199219 20.98707031 -0.5625 19.6875 C-0.60568359 18.43775391 -0.64886719 17.18800781 -0.69335938 15.90039062 C-1.15306844 2.30613688 -1.15306844 2.30613688 0 0 Z " fill="#092D50" transform="translate(174,194)"/>
<path d="M0 0 C4.38581779 4.16037856 6.69956688 7.51069703 7.4375 13.625 C7.36642974 19.11771589 4.55522374 22.99732248 1 27 C-3.34142272 30.04823298 -6.75544856 30.62223492 -12 30 C-16.71804179 28.65655759 -20.79894862 27.02642587 -23.5625 22.8125 C-25.93540297 17.77414438 -25.55319474 12.64304153 -24.4375 7.3125 C-18.94982754 -1.51549483 -9.5608939 -4.67873531 0 0 Z " fill="#5EC893" transform="translate(298,198)"/>
<path d="M0 0 C2.31 0 4.62 0 7 0 C8.66666667 5 10.33333333 10 12 15 C12.20496094 14.00097656 12.40992188 13.00195312 12.62109375 11.97265625 C12.89050781 10.68230469 13.15992188 9.39195312 13.4375 8.0625 C13.70433594 6.77472656 13.97117188 5.48695313 14.24609375 4.16015625 C15 1 15 1 16 0 C18.31 0 20.62 0 23 0 C24.32 4.62 25.64 9.24 27 14 C29.22656164 9.25645564 30.46148032 5.27749285 31 0 C33.64 0 36.28 0 39 0 C38.20995834 6.40206172 36.83235014 12.64309222 35.4375 18.9375 C35.08655273 20.53561523 35.08655273 20.53561523 34.72851562 22.16601562 C34.15461421 24.77785268 33.57838259 27.38915231 33 30 C31.54257537 30.08096803 30.08387193 30.13917774 28.625 30.1875 C27.81289063 30.22230469 27.00078125 30.25710937 26.1640625 30.29296875 C25.44992188 30.19628906 24.73578125 30.09960938 24 30 C21.90284215 26.85426323 21.47995441 24.98543749 20.875 21.3125 C20.70742187 20.31863281 20.53984375 19.32476562 20.3671875 18.30078125 C20.24601562 17.54152344 20.12484375 16.78226563 20 16 C19.67 16 19.34 16 19 16 C18.01 20.62 17.02 25.24 16 30 C13.03 30 10.06 30 7 30 C4.67515903 25.01263166 3.28763964 20.41361241 2.375 15 C2.19324219 13.99066406 2.19324219 13.99066406 2.0078125 12.9609375 C1.24260264 8.65247331 0.59817124 4.33391994 0 0 Z " fill="#49CBB3" transform="translate(230,197)"/>
<path d="M0 0 C2.64 0 5.28 0 8 0 C9.98436715 2.26469838 11.07885568 3.82606999 12.375 6.4375 C14.43846594 10.91872145 14.43846594 10.91872145 18 14 C18 9.38 18 4.76 18 0 C20.64 0 23.28 0 26 0 C26 9.9 26 19.8 26 30 C23.36 30 20.72 30 18 30 C17.34 28.35 16.68 26.7 16 25 C15.34 25 14.68 25 14 25 C13.65066406 24.36191406 13.30132812 23.72382813 12.94140625 23.06640625 C12.25884766 21.82697266 12.25884766 21.82697266 11.5625 20.5625 C11.11003906 19.73878906 10.65757812 18.91507813 10.19140625 18.06640625 C9.16337603 16.07691202 9.16337603 16.07691202 8 15 C7.67 19.95 7.34 24.9 7 30 C4.69 30 2.38 30 0 30 C0 20.1 0 10.2 0 0 Z " fill="#76AA43" transform="translate(387,197)"/>
<path d="M0 0 C8 0 8 0 9.98828125 1.828125 C10.64376953 3.02695313 10.64376953 3.02695313 11.3125 4.25 C11.76238281 5.03890625 12.21226562 5.8278125 12.67578125 6.640625 C13.11277344 7.41921875 13.54976562 8.1978125 14 9 C14.55042969 9.69609375 15.10085937 10.3921875 15.66796875 11.109375 C17 13 17 13 17 16 C17.66 16 18.32 16 19 16 C19 10.72 19 5.44 19 0 C21.31 0 23.62 0 26 0 C26 9.9 26 19.8 26 30 C23.36 30 20.72 30 18 30 C17.51080078 29.09507812 17.51080078 29.09507812 17.01171875 28.171875 C16.57472656 27.37265625 16.13773438 26.5734375 15.6875 25.75 C15.25824219 24.96109375 14.82898438 24.1721875 14.38671875 23.359375 C13.0465516 20.96827026 13.0465516 20.96827026 11.33203125 18.828125 C10 17 10 17 10 15 C9.34 15 8.68 15 8 15 C8 19.95 8 24.9 8 30 C5.36 30 2.72 30 0 30 C0 20.1 0 10.2 0 0 Z " fill="#2DB1C9" transform="translate(141,197)"/>
<path d="M0 0 C2.701875 -0.061875 5.40375 -0.12375 8.1875 -0.1875 C9.02949951 -0.21481201 9.87149902 -0.24212402 10.73901367 -0.27026367 C15.31952096 -0.32089807 18.28298447 0.01917007 22 3 C23.59138038 6.18276076 23.39713508 9.5353388 23 13 C21.625 15.5 21.625 15.5 20 17 C19.34 17 18.68 17 18 17 C18.680625 18.546875 18.680625 18.546875 19.375 20.125 C20.76707361 23.36437508 21.93380878 26.63739693 23 30 C20.36 30 17.72 30 15 30 C14.67386719 29.28972656 14.34773438 28.57945312 14.01171875 27.84765625 C13.57472656 26.92855469 13.13773437 26.00945312 12.6875 25.0625 C12.25824219 24.14597656 11.82898438 23.22945312 11.38671875 22.28515625 C10.14921339 19.69030588 10.14921339 19.69030588 7 19 C7 22.63 7 26.26 7 30 C4.69 30 2.38 30 0 30 C0 20.1 0 10.2 0 0 Z " fill="#7AE173" transform="translate(311,197)"/>
<path d="M0 0 C2.64 0 5.28 0 8 0 C8 3.63 8 7.26 8 11 C11.63 11 15.26 11 19 11 C19 7.37 19 3.74 19 0 C21.64 0 24.28 0 27 0 C27 9.9 27 19.8 27 30 C24.36 30 21.72 30 19 30 C19 26.04 19 22.08 19 18 C15.37 18 11.74 18 8 18 C8 21.96 8 25.92 8 30 C5.36 30 2.72 30 0 30 C0 20.1 0 10.2 0 0 Z " fill="#26A2BC" transform="translate(78,197)"/>
<path d="M0 0 C7.26 0 14.52 0 22 0 C22 2.31 22 4.62 22 7 C17.38 7 12.76 7 8 7 C8 8.32 8 9.64 8 11 C11.63 11 15.26 11 19 11 C19 13.31 19 15.62 19 18 C15.04 18 11.08 18 7 18 C7 19.98 7 21.96 7 24 C11.95 24 16.9 24 22 24 C22 25.98 22 27.96 22 30 C14.74 30 7.48 30 0 30 C0 20.1 0 10.2 0 0 Z " fill="#2EC6DD" transform="translate(175,197)"/>
<path d="M0 0 C1.04285156 -0.00515625 2.08570313 -0.0103125 3.16015625 -0.015625 C5.9375 0.25 5.9375 0.25 8.9375 2.25 C8.6075 3.9 8.2775 5.55 7.9375 7.25 C6.9475 7.58 5.9575 7.91 4.9375 8.25 C4.2775 7.92 3.6175 7.59 2.9375 7.25 C-2.43368699 6.62412575 -2.43368699 6.62412575 -7.0625 8.75 C-8.45561103 12.23277758 -8.79858258 15.55515411 -8.0625 19.25 C-6.96629178 21.55883638 -6.96629178 21.55883638 -5.0625 23.25 C-2.55369384 23.73261667 -2.55369384 23.73261667 0.125 23.5 C1.47658203 23.44585937 1.47658203 23.44585937 2.85546875 23.390625 C3.54253906 23.34421875 4.22960937 23.2978125 4.9375 23.25 C4.9375 22.26 4.9375 21.27 4.9375 20.25 C3.2875 20.25 1.6375 20.25 -0.0625 20.25 C-0.0625 18.27 -0.0625 16.29 -0.0625 14.25 C3.8975 14.25 7.8575 14.25 11.9375 14.25 C12.54991849 25.51850014 12.54991849 25.51850014 9.6875 28.9375 C4.81268388 31.26411679 0.36139399 31.84568778 -5.0625 31.25 C-8.66161415 29.8239359 -11.64805311 28.33512658 -14.0625 25.25 C-14.0625 24.59 -14.0625 23.93 -14.0625 23.25 C-14.7225 23.25 -15.3825 23.25 -16.0625 23.25 C-17.09547799 9.45783085 -17.09547799 9.45783085 -13.3125 5 C-9.21624805 0.98650062 -5.70194356 -0.02826242 0 0 Z " fill="#96DA41" transform="translate(435.0625,196.75)"/>
<path d="M0 0 C3.27191292 1.35815253 5.49895506 2.49895506 8 5 C8 5.99 8 6.98 8 8 C7.34 8 6.68 8 6 8 C5.67 8.99 5.34 9.98 5 11 C4.2265625 10.566875 4.2265625 10.566875 3.4375 10.125 C0.37643275 8.71219973 -2.74944918 7.8751483 -6 7 C-6 8.32 -6 9.64 -6 11 C-5.030625 11.20625 -4.06125 11.4125 -3.0625 11.625 C1.87756382 13.09284683 6.40401431 15.24560084 10 19 C10.99569436 22.20591701 10.92309648 24.78180749 10 28 C6.9684485 31.34516028 3.69083092 31.95394461 -0.75 32.25 C-5.92414476 32.19272164 -10.27362711 30.72637289 -14 27 C-13.625 24.875 -13.625 24.875 -13 23 C-10.6875 22.375 -10.6875 22.375 -8 22 C-7.01 22.66 -6.02 23.32 -5 24 C-2.67612053 24.39387788 -0.34206251 24.73486085 2 25 C0.30236836 20.92568406 -1.56397696 19.52620967 -5.5 17.875 C-6.2734375 17.58367187 -7.046875 17.29234375 -7.84375 16.9921875 C-10.17990203 15.91721899 -11.45150104 15.05019333 -13 13 C-13.73364032 9.9118861 -13.68200555 7.09697601 -13 4 C-8.98200366 -0.01799634 -5.55209086 -0.69401136 0 0 Z " fill="#2CC1D8" transform="translate(125,196)"/>
<path d="M0 0 C2.31 0 4.62 0 7 0 C7.33 3.3 7.66 6.6 8 10 C8.49371094 9.36191406 8.98742187 8.72382813 9.49609375 8.06640625 C10.13675781 7.24011719 10.77742188 6.41382813 11.4375 5.5625 C12.39462891 4.32693359 12.39462891 4.32693359 13.37109375 3.06640625 C15 1 15 1 16 0 C18.67058851 -0.14115161 21.32432238 -0.04247107 24 0 C22.58123329 3.22446979 20.82573309 5.36375498 18.375 7.875 C15.79393736 10.72859721 15.05390878 11.56872979 14.5625 15.5 C14.706875 16.325 14.85125 17.15 15 18 C15.59296875 18.2475 16.1859375 18.495 16.796875 18.75 C19.3343262 20.18968863 20.54044102 21.65151493 22.25 24 C22.77078125 24.70125 23.2915625 25.4025 23.828125 26.125 C25 28 25 28 25 30 C21.91459978 30.43303863 19.97735164 30.70269663 17 30 C14.8580719 28.11527193 13.24187819 26.13573618 11.54296875 23.84765625 C10.04278366 21.72233287 10.04278366 21.72233287 7 21 C7 23.97 7 26.94 7 30 C4.69 30 2.38 30 0 30 C0 20.1 0 10.2 0 0 Z " fill="#88D64E" transform="translate(341,197)"/>
<path d="M0 0 C-1.65 0 -3.3 0 -5 0 C-5 0.66 -5 1.32 -5 2 C-6.45408326 2.49191327 -7.91364828 2.96761922 -9.375 3.4375 C-10.18710937 3.70433594 -10.99921875 3.97117187 -11.8359375 4.24609375 C-29.19035651 8.38115902 -51.9221566 8.36450989 -69 3 C-69.66 2.34 -70.32 1.68 -71 1 C-59.9927882 -0.11808956 -49.00752117 -1.17235556 -37.95166016 -1.65795898 C-33.57625562 -1.86087779 -29.33194733 -2.37300762 -25 -3 C-21.96152292 -3.29185644 -18.92138406 -3.49804825 -15.875 -3.6875 C-15.08996094 -3.74744141 -14.30492187 -3.80738281 -13.49609375 -3.86914062 C-8.03847028 -4.20506517 -4.0655196 -4.0655196 0 0 Z " fill="#1A6598" transform="translate(325,254)"/>
<path d="M0 0 C0.33 0.66 0.66 1.32 1 2 C1.66 2 2.32 2 3 2 C3 1.34 3 0.68 3 0 C4.32 0 5.64 0 7 0 C6.67 0.99 6.34 1.98 6 3 C12.93 3.495 12.93 3.495 20 4 C20 4.33 20 4.66 20 5 C14.39 5 8.78 5 3 5 C3 14.9 3 24.8 3 35 C5.31 35 7.62 35 10 35 C10 31.37 10 27.74 10 24 C14 25 14 25 15.875 27.1875 C17 30 17 30 16.1875 33.3125 C15.795625 34.199375 15.40375 35.08625 15 36 C13.515 35.505 13.515 35.505 12 35 C12.33 35.99 12.66 36.98 13 38 C12.34 38 11.68 38 11 38 C10.67 38.66 10.34 39.32 10 40 C9.67 39.01 9.34 38.02 9 37 C6.36 36.67 3.72 36.34 1 36 C-0.04005702 32.61981469 -0.08004482 29.5219721 0 26 C-2.45579697 29.68564084 -2.45579697 29.68564084 -3 34 C-4.89353366 35.89353366 -6.84526801 37.4198632 -9 39 C-11.46800047 37.84826645 -13.04783565 36.95216435 -15 35 C-13.9275 34.484375 -12.855 33.96875 -11.75 33.4375 C-7.68985205 31.09035565 -5.4974395 28.45623561 -4 24 C-3.42979215 19.71529532 -3.55851073 15.08421959 -5 11 C-6.95021083 9.77472052 -6.95021083 9.77472052 -9 9 C-9.33 8.34 -9.66 7.68 -10 7 C-8.68 7.33 -7.36 7.66 -6 8 C-6 7.34 -6 6.68 -6 6 C-6.99 5.67 -7.98 5.34 -9 5 C-9 4.67 -9 4.34 -9 4 C-7.6078125 3.566875 -7.6078125 3.566875 -6.1875 3.125 C-2.90208333 2.1125 -2.90208333 2.1125 0 0 Z " fill="#121B42" transform="translate(308,192)"/>
<path d="M0 0 C8.25 0 16.5 0 25 0 C25 2.31 25 4.62 25 7 C22.36 7 19.72 7 17 7 C17 14.59 17 22.18 17 30 C14.36 30 11.72 30 9 30 C9 22.41 9 14.82 9 7 C6.03 7 3.06 7 0 7 C0 4.69 0 2.38 0 0 Z " fill="#2FC1CD" transform="translate(201,197)"/>
<path d="M0 0 C0.70125 0.2475 1.4025 0.495 2.125 0.75 C1.135 1.41 0.145 2.07 -0.875 2.75 C-2.10038589 3.68643027 -3.30818984 4.64619421 -4.5 5.625 C-5.41652344 6.36363281 -5.41652344 6.36363281 -6.3515625 7.1171875 C-9.52200819 10.51525494 -9.16863102 15.08105448 -9.07421875 19.50390625 C-8.7632299 23.01015306 -8.02845545 24.94398229 -5.875 27.75 C-1.20722365 30.60558082 3.677681 32.19130062 9.125 32.75 C9.125 33.08 9.125 33.41 9.125 33.75 C3.724676 33.97980102 -1.89343676 34.08179556 -6.875 31.75 C-10.8225511 27.22924285 -11.46193799 21.53286819 -11.875 15.75 C-12.535 16.08 -13.195 16.41 -13.875 16.75 C-13.83375 17.69875 -13.7925 18.6475 -13.75 19.625 C-13.875 22.75 -13.875 22.75 -15.875 24.75 C-15.545 25.74 -15.215 26.73 -14.875 27.75 C-14.215 28.08 -13.555 28.41 -12.875 28.75 C-13.65875 29.36875 -14.4425 29.9875 -15.25 30.625 C-17.84337647 32.64858661 -17.84337647 32.64858661 -19.875 34.75 C-22.16015625 34.875 -22.16015625 34.875 -24.9375 34.75 C-30.26195772 34.63761039 -34.73444845 35.40165861 -39.875 36.75 C-39.875 36.09 -39.875 35.43 -39.875 34.75 C-40.535 34.42 -41.195 34.09 -41.875 33.75 C-39.895 33.75 -37.915 33.75 -35.875 33.75 C-36.101875 32.821875 -36.32875 31.89375 -36.5625 30.9375 C-37.37011216 25.63345258 -35.47771377 20.75734869 -33.875 15.75 C-31.19949708 18.42550292 -31.04290611 20.69879894 -30.25 24.375 C-29.98960937 25.56351563 -29.72921875 26.75203125 -29.4609375 27.9765625 C-29.26757812 28.89179688 -29.07421875 29.80703125 -28.875 30.75 C-25.905 31.08 -22.935 31.41 -19.875 31.75 C-19.76285156 30.49316406 -19.65070313 29.23632812 -19.53515625 27.94140625 C-18.91987662 22.40388961 -17.65408515 17.08766207 -16.3125 11.6875 C-16.07853516 10.72650391 -15.84457031 9.76550781 -15.60351562 8.77539062 C-15.03232057 6.43232518 -14.45607577 4.09063082 -13.875 1.75 C-12.555 1.42 -11.235 1.09 -9.875 0.75 C-9.38 2.235 -9.38 2.235 -8.875 3.75 C-7.988125 3.069375 -7.10125 2.38875 -6.1875 1.6875 C-2.875 -0.25 -2.875 -0.25 0 0 Z " fill="#0C273E" transform="translate(282.875,195.25)"/>
<path d="M0 0 C0.2475 0.928125 0.495 1.85625 0.75 2.8125 C2.06454245 6.16458325 2.97963384 7.1877803 6 9 C5.01 10.485 5.01 10.485 4 12 C3.70547416 14.38677076 3.5071783 16.78626094 3.375 19.1875 C3.30023438 20.45980469 3.22546875 21.73210937 3.1484375 23.04296875 C3.09945313 24.01878906 3.05046875 24.99460938 3 26 C3.66 26 4.32 26 5 26 C5 26.66 5 27.32 5 28 C5.99 28.33 6.98 28.66 8 29 C8 29.66 8 30.32 8 31 C8.99 31.33 9.98 31.66 11 32 C10.01 32.495 10.01 32.495 9 33 C8.34 32.67 7.68 32.34 7 32 C7 31.34 7 30.68 7 30 C5.35 30 3.7 30 2 30 C1.67 29.34 1.34 28.68 1 28 C0.34 28 -0.32 28 -1 28 C-0.67 30.31 -0.34 32.62 0 35 C-4.48074195 38.36055646 -7.60550707 38.27429625 -13 38 C-12.01 37.505 -12.01 37.505 -11 37 C-11 36.34 -11 35.68 -11 35 C-11.99 34.67 -12.98 34.34 -14 34 C-14 32.68 -14 31.36 -14 30 C-14.66 30 -15.32 30 -16 30 C-15.67 28.68 -15.34 27.36 -15 26 C-15 26.66 -15 27.32 -15 28 C-14.34 28 -13.68 28 -13 28 C-12.835 28.639375 -12.67 29.27875 -12.5 29.9375 C-12.005 30.618125 -11.51 31.29875 -11 32 C-8.36 32.33 -5.72 32.66 -3 33 C-3 23.1 -3 13.2 -3 3 C-5.64 3 -8.28 3 -11 3 C-11 7.62 -11 12.24 -11 17 C-14.78570414 15.73809862 -15.21831571 14.45144185 -17.1875 11.0625 C-17.71730469 10.16660156 -18.24710937 9.27070313 -18.79296875 8.34765625 C-20 6 -20 6 -20 4 C-18.02 4.99 -18.02 4.99 -16 6 C-15.67 5.34 -15.34 4.68 -15 4 C-14.34 4 -13.68 4 -13 4 C-12.67 3.01 -12.34 2.02 -12 1 C-10.56274129 0.83126522 -9.12518162 0.66509263 -7.6875 0.5 C-6.88699219 0.4071875 -6.08648437 0.314375 -5.26171875 0.21875 C-3 0 -3 0 0 0 Z " fill="#13203A" transform="translate(416,194)"/>
<path d="M0 0 C2.20733053 0.02337712 4.41342816 0.02057156 6.62084961 0.01391602 C18.49164852 0.03793357 29.96776676 1.33598396 41.67358398 3.33618164 C41.67358398 3.99618164 41.67358398 4.65618164 41.67358398 5.33618164 C40.87138428 5.36123779 40.06918457 5.38629395 39.24267578 5.41210938 C35.61531325 5.52800207 31.98821481 5.65075915 28.36108398 5.77368164 C27.09844727 5.81299805 25.83581055 5.85231445 24.53491211 5.89282227 C22.72216797 5.95566406 22.72216797 5.95566406 20.87280273 6.01977539 C19.19963989 6.07476196 19.19963989 6.07476196 17.49267578 6.13085938 C14.59484828 6.22549373 14.59484828 6.22549373 11.67358398 7.33618164 C8.85661384 7.57020685 6.05775433 7.75774282 3.23608398 7.89868164 C2.43509277 7.94114014 1.63410156 7.98359863 0.80883789 8.02734375 C-5.57218087 8.34517962 -11.93765764 8.44892444 -18.32641602 8.33618164 C-17.66641602 7.34618164 -17.00641602 6.35618164 -16.32641602 5.33618164 C-18.63641602 5.00618164 -20.94641602 4.67618164 -23.32641602 4.33618164 C-23.32641602 4.00618164 -23.32641602 3.67618164 -23.32641602 3.33618164 C-15.57775976 0.02531273 -8.27629795 -0.09329744 0 0 Z " fill="#166230" transform="translate(233.326416015625,160.663818359375)"/>
<path d="M0 0 C2.0839403 0.11443603 4.16716493 0.24195547 6.25 0.375 C7.41015625 0.44460937 8.5703125 0.51421875 9.765625 0.5859375 C12.70694334 0.96248308 14.49949011 1.4774123 17 3 C16.34 3.33 15.68 3.66 15 4 C14.01 3.67 13.02 3.34 12 3 C8.34950077 2.72959265 5.55751264 2.82207043 2.0625 3.9375 C-0.34277966 6.34277966 -0.4240482 7.1353732 -0.625 10.4375 C-0.42128482 13.8345883 -0.23699989 14.72709103 2.0625 17.375 C5.31173451 19.17244888 8.57125306 20.57674655 12 22 C14 24 14 24 14 27 C7.375 27.25 7.375 27.25 4 25 C1.35367713 25.3121764 1.35367713 25.3121764 -1 26 C-1.04289755 27.93109581 -1.04289755 27.93109581 0 30 C3.48797488 31.79271391 3.48797488 31.79271391 7 33 C2.98367013 34.33877662 0.90367509 33.49049413 -3 32 C-4.4375 29.875 -4.4375 29.875 -5 28 C-4.979375 28.804375 -4.95875 29.60875 -4.9375 30.4375 C-5 33 -5 33 -6 34 C-7.68608966 34.07205511 -9.37500659 34.08386068 -11.0625 34.0625 C-11.98160156 34.05347656 -12.90070313 34.04445312 -13.84765625 34.03515625 C-14.55792969 34.02355469 -15.26820312 34.01195312 -16 34 C-16 33.67 -16 33.34 -16 33 C-13.36 33 -10.72 33 -8 33 C-8 23.1 -8 13.2 -8 3 C-5 6 -5 6 -4.70703125 8.48046875 C-4.8046875 10.98697917 -4.90234375 13.49348958 -5 16 C-4.34 12.37 -3.68 8.74 -3 5 C-2.34 5 -1.68 5 -1 5 C-0.67 3.35 -0.34 1.7 0 0 Z " fill="#0B284E" transform="translate(113,194)"/>
<path d="M0 0 C1.98 0.66 3.96 1.32 6 2 C6.33 10.91 6.66 19.82 7 29 C14.59 29.33 22.18 29.66 30 30 C30 30.33 30 30.66 30 31 C26.25227692 31.31320385 22.502791 31.56814264 18.75 31.8125 C17.68652344 31.90208984 16.62304688 31.99167969 15.52734375 32.08398438 C12.60539417 32.25856627 9.90439629 32.37246088 7 32 C4.265625 29.51171875 4.265625 29.51171875 3 27 C2.34 27.99 1.68 28.98 1 30 C-1.75 30.3984375 -1.75 30.3984375 -5 30.375 C-6.60875 30.38660156 -6.60875 30.38660156 -8.25 30.3984375 C-9.61125 30.20121094 -9.61125 30.20121094 -11 30 C-13 27 -13 27 -13 24 C-13.99 24 -14.98 24 -16 24 C-16 24.66 -16 25.32 -16 26 C-16.66 26 -17.32 26 -18 26 C-18 27.32 -18 28.64 -18 30 C-20.97 30 -23.94 30 -27 30 C-27 29.67 -27 29.34 -27 29 C-24.36 29 -21.72 29 -19 29 C-19 24.05 -19 19.1 -19 14 C-18.34 14 -17.68 14 -17 14 C-15.54805635 15.88052942 -14.18635395 17.83136849 -12.875 19.8125 C-12.15054688 20.89144531 -11.42609375 21.97039062 -10.6796875 23.08203125 C-9 26 -9 26 -9 29 C-6.03 29 -3.06 29 0 29 C0 19.43 0 9.86 0 0 Z " fill="#0B2147" transform="translate(168,198)"/>
<path d="M0 0 C2.91963173 1.98783437 4.61102978 3.4314697 5.48046875 6.9375 C5.75815509 10.90015906 5.23092162 12.66411401 2.9375 16 C-0.77807226 18.52975133 -2.5882483 18.7878128 -7 18 C-10 16.0625 -10 16.0625 -12 13 C-12.44529798 8.60951811 -11.73420728 5.1577884 -9.375 1.4375 C-5.97914496 -0.61788594 -3.90042018 -0.61585582 0 0 Z " fill="#131E47" transform="translate(292,203)"/>
<path d="M0 0 C2.31 0 4.62 0 7 0 C9.43046191 6.32837252 10.59060025 12.23784552 11 19 C12.65 18.34 14.3 17.68 16 17 C15.67 20.96 15.34 24.92 15 29 C12.03 29 9.06 29 6 29 C4.34894474 24.41850034 3.29265567 19.84503728 2.4375 15.0625 C2.31181641 14.38509766 2.18613281 13.70769531 2.05664062 13.00976562 C1.26472611 8.68533191 0.59627099 4.35561762 0 0 Z " fill="#45DDC8" transform="translate(230,197)"/>
<path d="M0 0 C1.98 0 3.96 0 6 0 C6 9.24 6 18.48 6 28 C3.36 28 0.72 28 -2 28 C-2.33 26.68 -2.66 25.36 -3 24 C-3.66 24 -4.32 24 -5 24 C-6.625 20.75 -6.625 20.75 -8 17 C-7.1875 14.5625 -7.1875 14.5625 -6 13 C-5.34 13.33 -4.68 13.66 -4 14 C-4 14.66 -4 15.32 -4 16 C-2.68 16 -1.36 16 0 16 C0 10.72 0 5.44 0 0 Z " fill="#9AE639" transform="translate(406,198)"/>
<path d="M0 0 C2.701875 -0.061875 5.40375 -0.12375 8.1875 -0.1875 C9.02949951 -0.21481201 9.87149902 -0.24212402 10.73901367 -0.27026367 C15.31952096 -0.32089807 18.28298447 0.01917007 22 3 C23.60725635 6.21451269 23.05748185 9.43612536 23 13 C22.67 13 22.34 13 22 13 C21.67 11.02 21.34 9.04 21 7 C19.68 6.67 18.36 6.34 17 6 C16.67 8.31 16.34 10.62 16 13 C12.7 13 9.4 13 6 13 C6 10.69 6 8.38 6 6 C4.02 6.99 4.02 6.99 2 8 C2.020625 7.030625 2.04125 6.06125 2.0625 5.0625 C2.35618499 2.12534105 2.35618499 2.12534105 1 1 C1 10.24 1 19.48 1 29 C2.65 29 4.3 29 6 29 C6 26.03 6 23.06 6 20 C6.33 20 6.66 20 7 20 C7 23.3 7 26.6 7 30 C4.69 30 2.38 30 0 30 C0 20.1 0 10.2 0 0 Z " fill="#6EBE69" transform="translate(311,197)"/>
<path d="M0 0 C0 0.66 0 1.32 0 2 C2.39719432 2.67958603 2.39719432 2.67958603 5 3 C5.66 2.34 6.32 1.68 7 1 C7 11.56 7 22.12 7 33 C4.525 33.495 4.525 33.495 2 34 C-3 24.62790698 -3 24.62790698 -3 21 C-2.360625 20.443125 -1.72125 19.88625 -1.0625 19.3125 C1.87744326 16.01619998 1.31341682 13.31730142 1.140625 9.046875 C1.09421875 8.37140625 1.0478125 7.6959375 1 7 C-1.475 6.01 -1.475 6.01 -4 5 C-3.67 4.34 -3.34 3.68 -3 3 C-3.66 2.34 -4.32 1.68 -5 1 C-2 0 -2 0 0 0 Z " fill="#132244" transform="translate(332,193)"/>
<path d="M0 0 C2.36073991 0.28983341 4.66439549 0.66512231 6.97265625 1.2421875 C6.97265625 2.8921875 6.97265625 4.5421875 6.97265625 6.2421875 C8.29265625 6.2421875 9.61265625 6.2421875 10.97265625 6.2421875 C10.97265625 6.9021875 10.97265625 7.5621875 10.97265625 8.2421875 C7.01265625 8.2421875 3.05265625 8.2421875 -1.02734375 8.2421875 C-1.02734375 10.2221875 -1.02734375 12.2021875 -1.02734375 14.2421875 C0.62265625 14.2421875 2.27265625 14.2421875 3.97265625 14.2421875 C3.97265625 15.2321875 3.97265625 16.2221875 3.97265625 17.2421875 C0.75209387 18.85246869 -2.54425365 18.83417515 -6.02734375 18.2421875 C-8.66171165 16.13469318 -9.75738831 14.63695729 -10.40234375 11.3046875 C-10.62238552 7.67399838 -10.17190304 5.53130607 -8.52734375 2.2421875 C-5.59929803 -0.10024908 -3.70226548 -0.23528416 0 0 Z " fill="#172443" transform="translate(436.02734375,202.7578125)"/>
<path d="M0 0 C2.6875 0.3125 2.6875 0.3125 5 1 C5 2.32 5 3.64 5 5 C2.05721961 7.28882919 -0.46117205 8.82039068 -4 10 C-4.391875 10.474375 -4.78375 10.94875 -5.1875 11.4375 C-7.65629204 13.565769 -10.09395152 13.81871675 -13.2578125 14.375 C-13.83273437 14.58125 -14.40765625 14.7875 -15 15 C-15.33 15.99 -15.66 16.98 -16 18 C-20.40914783 19.10228696 -24.48382401 19.07654536 -29 19 C-25.91190305 17.23537317 -24.76687864 17 -21 17 C-21 16.34 -21 15.68 -21 15 C-20.01 14.67 -19.02 14.34 -18 14 C-22.86051596 11.40772482 -27.65271133 11.81310447 -33 12 C-29.34374197 9.80624518 -25.51418423 9.29013109 -21.375 8.625 C-10.49949933 6.95599899 -10.49949933 6.95599899 -1.40625 1.35546875 C-0.9421875 0.90816406 -0.478125 0.46085938 0 0 Z " fill="#0D3762" transform="translate(341,239)"/>
<path d="M0 0 C2.31 0 4.62 0 7 0 C7 9.9 7 19.8 7 30 C4.69 30 2.38 30 0 30 C0 20.1 0 10.2 0 0 Z " fill="#8AC448" transform="translate(372,197)"/>
<path d="M0 0 C1.98 0 3.96 0 6 0 C6.06058594 0.78246094 6.12117188 1.56492188 6.18359375 2.37109375 C6.26738281 3.38300781 6.35117188 4.39492187 6.4375 5.4375 C6.51871094 6.44683594 6.59992188 7.45617187 6.68359375 8.49609375 C6.73211468 10.93640779 6.73211468 10.93640779 8 12 C9.51469448 12.23192865 11.03754562 12.41215238 12.5625 12.5625 C13.38878906 12.64628906 14.21507813 12.73007813 15.06640625 12.81640625 C15.70449219 12.87699219 16.34257813 12.93757812 17 13 C17.33 13.99 17.66 14.98 18 16 C14.37 16.33 10.74 16.66 7 17 C6.67 20.63 6.34 24.26 6 28 C4.02 28 2.04 28 0 28 C0 18.76 0 9.52 0 0 Z " fill="#2FDDF4" transform="translate(79,198)"/>
<path d="M0 0 C1.65 0 3.3 0 5 0 C5 0.66 5 1.32 5 2 C7.97 2.495 7.97 2.495 11 3 C11 3.33 11 3.66 11 4 C9.2675 3.938125 9.2675 3.938125 7.5 3.875 C4.18176331 4.23580648 3.11934995 4.87983118 0.72265625 7.29296875 C-0.69957371 9.11640643 -2.08648882 10.96803625 -3.43359375 12.84765625 C-3.95050781 13.55792969 -4.46742188 14.26820313 -5 15 C-5.33 15 -5.66 15 -6 15 C-6 11.37 -6 7.74 -6 4 C-8.31 4 -10.62 4 -13 4 C-13 13.9 -13 23.8 -13 34 C-10.69 34 -8.38 34 -6 34 C-6 31.03 -6 28.06 -6 25 C-1.80825346 26.04793663 -0.78407039 26.91763635 2 30 C1.67 30.66 1.34 31.32 1 32 C-0.65 30.68 -2.3 29.36 -4 28 C-4 30.31 -4 32.62 -4 35 C-7.63 35 -11.26 35 -15 35 C-15 24.11 -15 13.22 -15 2 C-11 2 -7 2 -3 2 C-3.33 2.66 -3.66 3.32 -4 4 C-3.01 4 -2.02 4 -1 4 C-0.67 2.68 -0.34 1.36 0 0 Z " fill="#1C372F" transform="translate(354,193)"/>
<path d="M0 0 C1.65 0 3.3 0 5 0 C5 9.24 5 18.48 5 28 C2.69 28 0.38 28 -2 28 C-5.2105836 24.46835804 -5.54501906 20.64080557 -6 16 C-3 16 -3 16 0 17 C0 11.39 0 5.78 0 0 Z " fill="#29E1F6" transform="translate(161,198)"/>
<path d="M0 0 C1.98 0 3.96 0 6 0 C5.67 1.65 5.34 3.3 5 5 C4.34 5 3.68 5 3 5 C3.061875 5.928125 3.12375 6.85625 3.1875 7.8125 C3.1875 12.98764024 2.00227547 18.23738592 0 23 C-0.99 23.33 -1.98 23.66 -3 24 C-3 24.99 -3 25.98 -3 27 C-4.32 27 -5.64 27 -7 27 C-7.39180108 25.42074025 -7.76280736 23.83631206 -8.125 22.25 C-8.33382812 21.36828125 -8.54265625 20.4865625 -8.7578125 19.578125 C-9.03520265 16.62526214 -8.7159282 15.39582429 -7 13 C-6.01 12.67 -5.02 12.34 -4 12 C-2.74674715 9.21473551 -2.74674715 9.21473551 -1.8125 5.9375 C-1.46832031 4.83277344 -1.12414062 3.72804687 -0.76953125 2.58984375 C-0.51558594 1.73519531 -0.26164062 0.88054687 0 0 Z " fill="#57DFAF" transform="translate(262,198)"/>
<path d="M0 0 C1.92779297 0.06574219 1.92779297 0.06574219 3.89453125 0.1328125 C9.87477203 0.35137968 15.85003178 0.62775636 21.8203125 1.0390625 C23.21660889 1.13501709 23.21660889 1.13501709 24.64111328 1.23291016 C27.16730868 1.63167857 28.92222849 2.35310413 31.125 3.625 C27.24918434 5.01631844 23.96767899 4.31718356 19.95703125 3.7109375 C11.95384462 2.60097923 4.06987081 2.25258116 -4.00415039 2.25439453 C-6.20469601 2.24996539 -8.40331396 2.2132833 -10.60351562 2.17578125 C-18.14789358 2.11718055 -24.55972121 2.69269109 -31.60668945 5.68066406 C-34.47161528 6.873381 -37.24036957 7.32484688 -40.3125 7.6875 C-44.49140302 8.18273618 -46.62105561 8.97545997 -49.875 11.625 C-51.54166667 11.95833333 -53.20833333 12.29166667 -54.875 12.625 C-57.13954073 14.09271271 -57.13954073 14.09271271 -58.875 15.625 C-57.52972514 10.12160284 -57.52972514 10.12160284 -54.8046875 8.0546875 C-51.16864642 6.28029945 -47.62641878 5.41360567 -43.6875 4.5625 C-42.93009521 4.39258545 -42.17269043 4.2226709 -41.39233398 4.04760742 C-39.2218008 3.56410613 -37.04886862 3.09323405 -34.875 2.625 C-33.89015625 2.40585938 -32.9053125 2.18671875 -31.890625 1.9609375 C-21.19381607 -0.32150262 -10.91088466 -0.43513 0 0 Z " fill="#061F25" transform="translate(241.875,159.375)"/>
<path d="M0 0 C0 0.99 0 1.98 0 3 C2.31 3 4.62 3 7 3 C7 3.33 7 3.66 7 4 C-0.45173738 5.1637474 -7.84302551 5.21944432 -15.375 5.25 C-16.63828125 5.270625 -17.9015625 5.29125 -19.203125 5.3125 C-26.66242088 5.34351578 -33.01868206 4.70126279 -40 2 C-40 1.67 -40 1.34 -40 1 C-26.69186686 -0.35500992 -13.35937626 -0.09794264 0 0 Z " fill="#37A4DF" transform="translate(294,254)"/>
<path d="M0 0 C2.31 0 4.62 0 7 0 C8.28571429 8.57142857 8.28571429 8.57142857 7 12 C6.34 12 5.68 12 5 12 C5 17.28 5 22.56 5 28 C3.35 28 1.7 28 0 28 C0 18.76 0 9.52 0 0 Z " fill="#9AE43F" transform="translate(388,198)"/>
<path d="M0 0 C3.96 0 7.92 0 12 0 C15 10.625 15 10.625 15 14 C15.66 14 16.32 14 17 14 C17.625 16.375 17.625 16.375 18 19 C16 21 16 21 13.56982422 21.22705078 C12.5748291 21.21657715 11.57983398 21.20610352 10.5546875 21.1953125 C9.47832031 21.18886719 8.40195313 21.18242187 7.29296875 21.17578125 C6.16503906 21.15902344 5.03710938 21.14226562 3.875 21.125 C2.73933594 21.11597656 1.60367188 21.10695312 0.43359375 21.09765625 C-2.37781299 21.07403098 -5.18880298 21.04109013 -8 21 C-8 20.67 -8 20.34 -8 20 C-0.74 20 6.52 20 14 20 C14 18.02 14 16.04 14 14 C9.05 14 4.1 14 -1 14 C-1 12.02 -1 10.04 -1 8 C2.96 8 6.92 8 11 8 C11 5.69 11 3.38 11 1 C7.37 1 3.74 1 0 1 C0 0.67 0 0.34 0 0 Z " fill="#083255" transform="translate(183,207)"/>
<path d="M0 0 C5.06793834 -0.04992286 10.13572942 -0.08596378 15.20385742 -0.10986328 C16.92328387 -0.1198403 18.64269372 -0.13342675 20.36206055 -0.15087891 C29.76691171 -0.24386086 38.8045961 -0.29982328 48 2 C48 2.66 48 3.32 48 4 C43.10742766 4.19288209 38.21461659 4.37150301 33.32104492 4.53710938 C31.65749264 4.59539442 29.99407044 4.65752784 28.33081055 4.72363281 C25.93562514 4.81815134 23.54030817 4.89867526 21.14453125 4.9765625 C20.4047554 5.00875885 19.66497955 5.0409552 18.90278625 5.0741272 C14.78508725 5.19272735 11.67954794 4.90648792 8 3 C7.67 2.67 7.34 2.34 7 2 C4.67182036 1.63239269 2.3381615 1.29758419 0 1 C0 0.67 0 0.34 0 0 Z " fill="#20743E" transform="translate(227,162)"/>
<path d="M0 0 C6.27 0 12.54 0 19 0 C19 0.33 19 0.66 19 1 C13.39 1 7.78 1 2 1 C2 10.9 2 20.8 2 31 C4.31 31 6.62 31 9 31 C9 27.37 9 23.74 9 20 C13 21 13 21 14.875 23.1875 C16 26 16 26 15.1875 29.3125 C14.795625 30.199375 14.40375 31.08625 14 32 C13.01 31.67 12.02 31.34 11 31 C11.33 31.99 11.66 32.98 12 34 C11.34 34 10.68 34 10 34 C9.67 34.66 9.34 35.32 9 36 C8.505 34.515 8.505 34.515 8 33 C4.04 32.505 4.04 32.505 0 32 C-1.13916302 28.42525275 -1.03150662 25.21460618 -0.87890625 21.484375 C-0.83056641 20.23398438 -0.78222656 18.98359375 -0.73242188 17.6953125 C-0.67634766 16.39335937 -0.62027344 15.09140625 -0.5625 13.75 C-0.51029297 12.43257812 -0.45808594 11.11515625 -0.40429688 9.7578125 C-0.2746558 6.50500005 -0.13799639 3.2524687 0 0 Z " fill="#173535" transform="translate(309,196)"/>
<path d="M0 0 C1.98 0 3.96 0 6 0 C6.71614583 1.72526042 7.43229167 3.45052083 8.1484375 5.17578125 C9.06806692 7.26533932 9.06806692 7.26533932 11 10 C11.125 12.6875 11.125 12.6875 11 15 C10.34 15 9.68 15 9 15 C8.67 13.35 8.34 11.7 8 10 C7.01 10.66 6.02 11.32 5 12 C4.61588725 14.609621 4.39706803 17.0058074 4.3125 19.625 C4.27833984 20.33140625 4.24417969 21.0378125 4.20898438 21.765625 C4.12648692 23.50985688 4.06156665 25.25490395 4 27 C2.68 27 1.36 27 0 27 C0 18.09 0 9.18 0 0 Z " fill="#29E1F5" transform="translate(143,198)"/>
<path d="M0 0 C5.2174435 4.94925715 7.04693808 8.6680433 7.328125 15.96484375 C7 18 7 18 4 22 C4 16.72 4 11.44 4 6 C3.01 6 2.02 6 1 6 C0.67 5.34 0.34 4.68 0 4 C-0.99 3.67 -1.98 3.34 -3 3 C-3 2.01 -3 1.02 -3 0 C-6.63 0 -10.26 0 -14 0 C-14.33 1.32 -14.66 2.64 -15 4 C-14.15695312 3.96519531 -13.31390625 3.93039063 -12.4453125 3.89453125 C-11.34960938 3.86746094 -10.25390625 3.84039062 -9.125 3.8125 C-7.48917969 3.76029297 -7.48917969 3.76029297 -5.8203125 3.70703125 C-4.88960938 3.80371094 -3.95890625 3.90039062 -3 4 C-2.01 5.485 -2.01 5.485 -1 7 C-1.33 7.99 -1.66 8.98 -2 10 C-2.515625 9.34 -3.03125 8.68 -3.5625 8 C-5.93302698 5.69228266 -5.93302698 5.69228266 -9.5 5.5625 C-13.06051786 6.00756473 -14.45687431 6.55859934 -17 9 C-17.33 7.68 -17.66 6.36 -18 5 C-19.98 5.99 -19.98 5.99 -22 7 C-22 11.95 -22 16.9 -22 22 C-25 19 -25 19 -25.36328125 16.9140625 C-25.14695678 7.16282099 -25.14695678 7.16282099 -21.4140625 3.40234375 C-14.97631533 -2.34273442 -8.13068368 -3.9788452 0 0 Z " fill="#60CF95" transform="translate(298,198)"/>
<path d="M0 0 C0.33 0.66 0.66 1.32 1 2 C2.65 1.67 4.3 1.34 6 1 C8.29771877 4.62302413 8.16171042 7.51300246 7.9765625 11.734375 C7.925 13.02988281 7.8734375 14.32539063 7.8203125 15.66015625 C7.75544062 17.02344857 7.69033347 18.38672972 7.625 19.75 C7.56672442 21.12886502 7.50942192 22.50777153 7.453125 23.88671875 C7.31165822 27.25834372 7.16024172 30.62922366 7 34 C6.67 34 6.34 34 6 34 C6 24.1 6 14.2 6 4 C3.69 4 1.38 4 -1 4 C-1 9.28 -1 14.56 -1 20 C-1.66 20 -2.32 20 -3 20 C-3.31453125 19.41992188 -3.6290625 18.83984375 -3.953125 18.2421875 C-4.84121018 16.62116456 -5.74159436 15.00683615 -6.65234375 13.3984375 C-7.74499331 11.453838 -8.78677242 9.48071533 -9.8125 7.5 C-12.22793337 4.73950472 -12.7900619 4.57497437 -16.25 4.125 C-18.10625 4.063125 -18.10625 4.063125 -20 4 C-20 3.67 -20 3.34 -20 3 C-16.37 3 -12.74 3 -9 3 C-8.67 4.32 -8.34 5.64 -8 7 C-6.01508358 6.73323796 -6.01508358 6.73323796 -4 6 C-3.67 5.01 -3.34 4.02 -3 3 C-2.01 3 -1.02 3 0 3 C0 2.01 0 1.02 0 0 Z " fill="#0A3F61" transform="translate(161,193)"/>
<path d="M0 0 C1.22589844 0.15275391 1.22589844 0.15275391 2.4765625 0.30859375 C3.41628906 0.43427734 3.41628906 0.43427734 4.375 0.5625 C4.375 1.5525 4.375 2.5425 4.375 3.5625 C5.695 3.8925 7.015 4.2225 8.375 4.5625 C8.375 5.2225 8.375 5.8825 8.375 6.5625 C9.365 6.5625 10.355 6.5625 11.375 6.5625 C12.30749614 9.35998841 12.50976152 11.10570881 12.5 14 C12.50386719 15.14275391 12.50386719 15.14275391 12.5078125 16.30859375 C12.37776015 18.51565859 11.98356199 20.44219276 11.375 22.5625 C10.055 22.8925 8.735 23.2225 7.375 23.5625 C7.24222656 22.43070313 7.10945313 21.29890625 6.97265625 20.1328125 C6.7944658 18.65101821 6.61606971 17.16924864 6.4375 15.6875 C6.35048828 14.94113281 6.26347656 14.19476563 6.17382812 13.42578125 C5.74173937 9.3671769 5.74173937 9.3671769 4.375 5.5625 C1.5590151 5.09351037 1.5590151 5.09351037 -1.6875 4.9375 C-2.79222656 4.86273438 -3.89695312 4.78796875 -5.03515625 4.7109375 C-5.88980469 4.66195312 -6.74445313 4.61296875 -7.625 4.5625 C-7.25 2.625 -7.25 2.625 -6.625 0.5625 C-4.10446405 -0.69776798 -2.7707902 -0.35624445 0 0 Z " fill="#6DE582" transform="translate(290.625,197.4375)"/>
<path d="M0 0 C0.66 0 1.32 0 2 0 C2 9.9 2 19.8 2 30 C4.31 30 6.62 30 9 30 C9 24.72 9 19.44 9 14 C14.625 19.625 14.625 19.625 15 23 C14.01 22.67 13.02 22.34 12 22 C12.020625 23.11375 12.04125 24.2275 12.0625 25.375 C12 29 12 29 11 31 C7.37 31.33 3.74 31.66 0 32 C0 21.44 0 10.88 0 0 Z " fill="#223C2B" transform="translate(385,197)"/>
<path d="M0 0 C1.65 0.33 3.3 0.66 5 1 C5 3.64 5 6.28 5 9 C3.02 9.99 3.02 9.99 1 11 C1.309375 11.680625 1.61875 12.36125 1.9375 13.0625 C3.13370649 16.36965912 3.59005397 19.51545878 4 23 C2.35 23 0.7 23 -1 23 C-4.62870159 12.62642369 -4.62870159 12.62642369 -3 7 C-2.34 7 -1.68 7 -1 7 C-0.67 4.69 -0.34 2.38 0 0 Z " fill="#7FDC62" transform="translate(328,203)"/>
<path d="M0 0 C3.3 0 6.6 0 10 0 C11.47308269 2.94616538 11.00294692 5.47762594 10.87890625 8.7578125 C10.85529526 9.42086395 10.83168427 10.08391541 10.80735779 10.76705933 C10.73073184 12.88659129 10.64670357 15.00575685 10.5625 17.125 C10.50927819 18.56117994 10.4565378 19.9973778 10.40429688 21.43359375 C10.27511856 24.95595436 10.1392997 28.47802352 10 32 C9.67 32 9.34 32 9 32 C9 22.1 9 12.2 9 2 C6.36 2 3.72 2 1 2 C1 6.62 1 11.24 1 16 C-2.78570414 14.73809862 -3.21831571 13.45144185 -5.1875 10.0625 C-5.71730469 9.16660156 -6.24710937 8.27070313 -6.79296875 7.34765625 C-8 5 -8 5 -8 3 C-6.02 3.99 -6.02 3.99 -4 5 C-3.67 4.34 -3.34 3.68 -3 3 C-2.34 3 -1.68 3 -1 3 C-0.67 2.01 -0.34 1.02 0 0 Z " fill="#1B3428" transform="translate(404,195)"/>
<path d="M0 0 C0 10.23 0 20.46 0 31 C-1.32 31.33 -2.64 31.66 -4 32 C-4 21.77 -4 11.54 -4 1 C-1 0 -1 0 0 0 Z " fill="#121E40" transform="translate(385,196)"/>
<path d="M0 0 C1.32 0 2.64 0 4 0 C4.69951063 2.413762 5.38483919 4.83010234 6.0625 7.25 C6.26166016 7.93191406 6.46082031 8.61382812 6.66601562 9.31640625 C8.40009269 15.58342161 8.40009269 15.58342161 7 19 C5.10134397 16.02819057 3.64544429 13.48539917 3 10 C2.360625 10.165 1.72125 10.33 1.0625 10.5 C-0.91645199 10.97974594 -1.97886036 11 -4 11 C-4 10.34 -4 9.68 -4 9 C-4.99 9.495 -4.99 9.495 -6 10 C-5.99476318 10.60062256 -5.98952637 11.20124512 -5.98413086 11.82006836 C-5.96341986 14.52586838 -5.95035875 17.23165177 -5.9375 19.9375 C-5.92912109 20.88302734 -5.92074219 21.82855469 -5.91210938 22.80273438 C-5.90888672 23.70185547 -5.90566406 24.60097656 -5.90234375 25.52734375 C-5.89710693 26.35999756 -5.89187012 27.19265137 -5.88647461 28.05053711 C-6 30 -6 30 -7 31 C-8.51928038 31.07179964 -10.04167482 31.08392007 -11.5625 31.0625 C-12.38878906 31.05347656 -13.21507812 31.04445312 -14.06640625 31.03515625 C-15.02353516 31.01775391 -15.02353516 31.01775391 -16 31 C-16 30.67 -16 30.34 -16 30 C-13.36 30 -10.72 30 -8 30 C-8 22.41 -8 14.82 -8 7 C-5.36 7 -2.72 7 0 7 C0 4.69 0 2.38 0 0 Z " fill="#06314E" transform="translate(226,197)"/>
<path d="M0 0 C2.91963173 1.98783437 4.61102978 3.4314697 5.48046875 6.9375 C5.75815509 10.90015906 5.23092162 12.66411401 2.9375 16 C-0.77807226 18.52975133 -2.5882483 18.7878128 -7 18 C-10 16.0625 -10 16.0625 -12 13 C-12.44529798 8.60951811 -11.73420728 5.1577884 -9.375 1.4375 C-5.97914496 -0.61788594 -3.90042018 -0.61585582 0 0 Z M-9.125 5.125 C-10.25146071 8.82622803 -9.61547492 10.53826803 -8 14 C-6.12061828 16.29827312 -6.12061828 16.29827312 -3.0625 16.3125 C-0.08904902 16.21648621 -0.08904902 16.21648621 1.875 14.9375 C3.62409203 11.92517484 3.30401551 9.40497373 3 6 C2.34 5.01 1.68 4.02 1 3 C-4.68669059 2.12186802 -4.68669059 2.12186802 -9.125 5.125 Z " fill="#164142" transform="translate(292,203)"/>
<path d="M0 0 C2 3 2 3 2 5 C2.59296875 5.2475 3.1859375 5.495 3.796875 5.75 C6.3343262 7.18968863 7.54044102 8.65151493 9.25 11 C9.77078125 11.70125 10.2915625 12.4025 10.828125 13.125 C12 15 12 15 12 17 C8.91423428 17.43308993 6.978649 17.6965776 4 17 C1.22420252 14.64835726 -0.83835678 11.90945493 -3 9 C-3.66 8.34 -4.32 7.68 -5 7 C-4.01 6.67 -3.02 6.34 -2 6 C-1.34 6.33 -0.68 6.66 0 7 C-0.185625 6.030625 -0.37125 5.06125 -0.5625 4.0625 C-0.706875 3.051875 -0.85125 2.04125 -1 1 C-0.67 0.67 -0.34 0.34 0 0 Z " fill="#85C449" transform="translate(354,210)"/>
<path d="M0 0 C2.9684965 1.37823052 5.63560751 2.71713829 8 5 C9.80346582 11.31213035 10.01141658 18.16761216 7 24 C7 24.99 7 25.98 7 27 C5.10646634 28.89353366 3.15473199 30.4198632 1 32 C-1.46800047 30.84826645 -3.04783565 29.95216435 -5 28 C-3.9275 27.484375 -2.855 26.96875 -1.75 26.4375 C2.31014795 24.09035565 4.5025605 21.45623561 6 17 C6.57020785 12.71529532 6.44148927 8.08421959 5 4 C3.04978917 2.77472052 3.04978917 2.77472052 1 2 C0.67 1.34 0.34 0.68 0 0 Z " fill="#193F42" transform="translate(298,199)"/>
<path d="M0 0 C0.33 0.99 0.66 1.98 1 3 C-1.64 3 -4.28 3 -7 3 C-7 12.9 -7 22.8 -7 33 C-7.33 33 -7.66 33 -8 33 C-9.44261506 25.85695458 -10.33234451 18.69871245 -10.875 11.4375 C-10.948396 10.65197754 -11.02179199 9.86645508 -11.09741211 9.05712891 C-11.45389839 3.52047015 -11.45389839 3.52047015 -9.2421875 0.984375 C-6.10772129 -0.39173212 -3.37763602 -0.19486362 0 0 Z " fill="#091F46" transform="translate(85,194)"/>
<path d="M0 0 C1.60488281 -0.03867188 1.60488281 -0.03867188 3.2421875 -0.078125 C6.125 0.25 6.125 0.25 8.0078125 1.578125 C9.125 3.25 9.125 3.25 9.125 6.25 C8.465 6.25 7.805 6.25 7.125 6.25 C6.795 7.24 6.465 8.23 6.125 9.25 C4.125 8.25 2.125 7.25 0.125 6.25 C-1.41168865 6.02532169 -2.95468054 5.84203195 -4.5 5.6875 C-5.31726563 5.60371094 -6.13453125 5.51992187 -6.9765625 5.43359375 C-7.60304688 5.37300781 -8.22953125 5.31242188 -8.875 5.25 C-6.43786336 0.21325095 -5.70417251 0.08207442 0 0 Z " fill="#29E1F8" transform="translate(123.875,197.75)"/>
<path d="M0 0 C0.9075 0.185625 1.815 0.37125 2.75 0.5625 C5.68314324 0.95734621 7.2644657 0.94691572 10 0 C10 0.99 10 1.98 10 3 C6.7 3 3.4 3 0 3 C0 13.23 0 23.46 0 34 C-0.66 34 -1.32 34 -2 34 C-2.33 32.68 -2.66 31.36 -3 30 C-3.66 30.33 -4.32 30.66 -5 31 C-4.5359375 29.081875 -4.5359375 29.081875 -4.0625 27.125 C-2.83660059 21.16695742 -2.60668908 15.22264158 -2.42993164 9.15869141 C-2.28405806 5.29986002 -2.18740709 3.28111064 0 0 Z " fill="#07294E" transform="translate(141,193)"/>
<path d="M0 0 C2.64 0 5.28 0 8 0 C7.20995834 6.40206172 5.83235014 12.64309222 4.4375 18.9375 C4.20353516 20.00291016 3.96957031 21.06832031 3.72851562 22.16601562 C3.15461421 24.77785268 2.57838259 27.38915231 2 30 C-0.97 30 -3.94 30 -7 30 C-7.33 26.7 -7.66 23.4 -8 20 C-6 24 -6 24 -6 28 C-4.68 28 -3.36 28 -2 28 C-2 27.01 -2 26.02 -2 25 C-1.34 24.67 -0.68 24.34 0 24 C2.09789884 18.19815537 3.31993504 12.12058468 4 6 C4.66 6 5.32 6 6 6 C6 4.68 6 3.36 6 2 C4.35 1.67 2.7 1.34 1 1 C0.67 1.66 0.34 2.32 0 3 C0 2.01 0 1.02 0 0 Z " fill="#55C0A3" transform="translate(261,197)"/>
<path d="M0 0 C0.66 0 1.32 0 2 0 C3.45194365 1.88052942 4.81364605 3.83136849 6.125 5.8125 C6.84945312 6.89144531 7.57390625 7.97039062 8.3203125 9.08203125 C10 12 10 12 10 15 C12.64 15 15.28 15 18 15 C18 15.33 18 15.66 18 16 C16.37581255 16.08090971 14.75048255 16.13914995 13.125 16.1875 C12.22007812 16.22230469 11.31515625 16.25710937 10.3828125 16.29296875 C9.20332031 16.14794922 9.20332031 16.14794922 8 16 C6 13 6 13 6 10 C5.01 10 4.02 10 3 10 C3 10.66 3 11.32 3 12 C2.34 12 1.68 12 1 12 C1 13.32 1 14.64 1 16 C-1.97 16 -4.94 16 -8 16 C-8 15.67 -8 15.34 -8 15 C-5.36 15 -2.72 15 0 15 C0 10.05 0 5.1 0 0 Z " fill="#093B60" transform="translate(149,212)"/>
<path d="M0 0 C3.63 0 7.26 0 11 0 C11 3.96 11 7.92 11 12 C10.01 12 9.02 12 8 12 C8 9.36 8 6.72 8 4 C6.35 3.67 4.7 3.34 3 3 C3.01160156 3.63808594 3.02320312 4.27617187 3.03515625 4.93359375 C3.04417969 5.75988281 3.05320312 6.58617187 3.0625 7.4375 C3.07410156 8.26121094 3.08570312 9.08492187 3.09765625 9.93359375 C3 12 3 12 2 13 C0.31391034 13.07205511 -1.37500659 13.08386068 -3.0625 13.0625 C-3.98160156 13.05347656 -4.90070313 13.04445312 -5.84765625 13.03515625 C-6.55792969 13.02355469 -7.26820312 13.01195312 -8 13 C-8 12.67 -8 12.34 -8 12 C-5.36 12 -2.72 12 0 12 C0 8.04 0 4.08 0 0 Z M3 10 C3.66 10 4.32 10 5 10 C4.67 10.66 4.34 11.32 4 12 C3.67 11.34 3.34 10.68 3 10 Z " fill="#072D52" transform="translate(86,215)"/>
<path d="M0 0 C0.99 0.66 1.98 1.32 3 2 C1.96939453 2.03867188 1.96939453 2.03867188 0.91796875 2.078125 C0.01691406 2.13484375 -0.88414063 2.1915625 -1.8125 2.25 C-2.70582031 2.29640625 -3.59914063 2.3428125 -4.51953125 2.390625 C-7.16053515 2.79121416 -7.16053515 2.79121416 -8.82421875 5.046875 C-9.40623047 6.01367188 -9.40623047 6.01367188 -10 7 C-8.68 7 -7.36 7 -6 7 C-6 8.32 -6 9.64 -6 11 C-6.66 11 -7.32 11 -8 11 C-6.60240095 14.54518884 -6.60240095 14.54518884 -5 18 C-8.38071359 16.81218171 -10.73973472 15.81564474 -13 13 C-13.73364032 9.9118861 -13.68200555 7.09697601 -13 4 C-8.98373279 -0.01626721 -5.55511159 -0.62888056 0 0 Z " fill="#29C6DB" transform="translate(125,196)"/>
<path d="M0 0 C1.60488281 -0.02126953 1.60488281 -0.02126953 3.2421875 -0.04296875 C6.125 0.1875 6.125 0.1875 9.125 2.1875 C8.795 3.8375 8.465 5.4875 8.125 7.1875 C7.135 7.5175 6.145 7.8475 5.125 8.1875 C4.465 7.8575 3.805 7.5275 3.125 7.1875 C1.20999697 7.02851146 1.20999697 7.02851146 -0.875 7.0625 C-1.57625 7.05992187 -2.2775 7.05734375 -3 7.0546875 C-4.96653775 7.07372764 -4.96653775 7.07372764 -6.875 8.1875 C-6.875 7.1975 -6.875 6.2075 -6.875 5.1875 C-5.555 5.1875 -4.235 5.1875 -2.875 5.1875 C-3.83365509 2.85674071 -3.83365509 2.85674071 -6.875 1.1875 C-5.07595222 -0.61154778 -2.42436549 0.01453457 0 0 Z " fill="#93D346" transform="translate(434.875,196.8125)"/>
<path d="M0 0 C3.91787427 -0.22387853 6.39712042 0.55884817 10 2 C12.70886941 2.16798262 12.70886941 2.16798262 15 2 C15 2.66 15 3.32 15 4 C14.01 4.495 14.01 4.495 13 5 C13.99 5.33 14.98 5.66 16 6 C15.625 8.4375 15.625 8.4375 15 11 C14.01 11.495 14.01 11.495 13 12 C13.33 10.35 13.66 8.7 14 7 C8.61727861 5.20575954 2.01332536 4.84991416 -3.34375 6.89453125 C-5.44323306 8.06829179 -5.44323306 8.06829179 -8 10 C-8.33 9.01 -8.66 8.02 -9 7 C-7.02 6.67 -5.04 6.34 -3 6 C-3 5.01 -3 4.02 -3 3 C-2.01 3 -1.02 3 0 3 C0 2.01 0 1.02 0 0 Z " fill="#253A30" transform="translate(430,192)"/>
<path d="M0 0 C0.33 0 0.66 0 1 0 C1.433125 1.6396875 1.433125 1.6396875 1.875 3.3125 C2.81893204 7.04013845 2.81893204 7.04013845 5 10 C7.66653905 10.36460453 7.66653905 10.36460453 10.625 10.1875 C11.62789063 10.16042969 12.63078125 10.13335937 13.6640625 10.10546875 C14.43492187 10.07066406 15.20578125 10.03585938 16 10 C15.67 10.99 15.34 11.98 15 13 C12.03 13 9.06 13 6 13 C6 13.66 6 14.32 6 15 C6.66 15 7.32 15 8 15 C8 15.66 8 16.32 8 17 C9.65 17 11.3 17 13 17 C13 17.33 13 17.66 13 18 C7.42447662 18.28838914 3.82637422 18.178344 -1 15 C-1.33 14.01 -1.66 13.02 -2 12 C-0.35 12 1.3 12 3 12 C2.67 11.01 2.34 10.02 2 9 C1.34 8.67 0.68 8.34 0 8 C0 5.36 0 2.72 0 0 Z " fill="#86C442" transform="translate(425,210)"/>
<path d="M0 0 C0.99 0.33 1.98 0.66 3 1 C2.67 2.32 2.34 3.64 2 5 C2.66 5 3.32 5 4 5 C3.719172 6.98073365 3.42503386 8.95958448 3.125 10.9375 C2.96257812 12.03964844 2.80015625 13.14179688 2.6328125 14.27734375 C2.42398438 15.17582031 2.21515625 16.07429688 2 17 C1.34 17.33 0.68 17.66 0 18 C-1.32 13.05 -2.64 8.1 -4 3 C-6.31 2.67 -8.62 2.34 -11 2 C-11 1.67 -11 1.34 -11 1 C-10.06027344 1.01740234 -10.06027344 1.01740234 -9.1015625 1.03515625 C-7.87566406 1.04869141 -7.87566406 1.04869141 -6.625 1.0625 C-5.40683594 1.07990234 -5.40683594 1.07990234 -4.1640625 1.09765625 C-1.95062858 1.14466334 -1.95062858 1.14466334 0 0 Z " fill="#112F4D" transform="translate(241,195)"/>
<path d="M0 0 C0.33 7.26 0.66 14.52 1 22 C3.64 22.33 6.28 22.66 9 23 C8.67 23.99 8.34 24.98 8 26 C5.9375 26.6875 5.9375 26.6875 4 27 C3.67 26.01 3.34 25.02 3 24 C1.68 24 0.36 24 -1 24 C-1 16.41 -1 8.82 -1 1 C-3.97 2.32 -6.94 3.64 -10 5 C-10.33 6.32 -10.66 7.64 -11 9 C-11.99 9.495 -11.99 9.495 -13 10 C-13.625 6.625 -13.625 6.625 -14 3 C-10.06186816 -0.93813184 -5.44158079 0 0 0 Z " fill="#06163C" transform="translate(209,205)"/>
<path d="M0 0 C7.26 0.33 14.52 0.66 22 1 C22.33 1.66 22.66 2.32 23 3 C15.74 3 8.48 3 1 3 C1 12.9 1 22.8 1 33 C0.67 33 0.34 33 0 33 C-0.16787805 28.5833785 -0.33409365 24.16669597 -0.5 19.75 C-0.57154297 17.86861328 -0.57154297 17.86861328 -0.64453125 15.94921875 C-0.68964844 14.74394531 -0.73476562 13.53867188 -0.78125 12.296875 C-0.82314453 11.18666992 -0.86503906 10.07646484 -0.90820312 8.93261719 C-1.1178314 2.2356628 -1.1178314 2.2356628 0 0 Z " fill="#033355" transform="translate(174,194)"/>
<path d="M0 0 C9.24 0 18.48 0 28 0 C28 0.33 28 0.66 28 1 C18.595 1.99 18.595 1.99 9 3 C11.64 3.66 14.28 4.32 17 5 C17 5.33 17 5.66 17 6 C10.66606918 6.34548714 5.89738492 5.29342747 0 3 C0 2.01 0 1.02 0 0 Z " fill="#07204A" transform="translate(247,253)"/>
<path d="M0 0 C2.76223278 2.76223278 2.57856291 5.20706617 3 9 C2.34 8.01 1.68 7.02 1 6 C1.144375 6.60328125 1.28875 7.2065625 1.4375 7.828125 C1.623125 8.62734375 1.80875 9.4265625 2 10.25 C2.185625 11.03890625 2.37125 11.8278125 2.5625 12.640625 C3 15 3 15 3 19 C0.03 19.66 -2.94 20.32 -6 21 C-6 20.34 -6 19.68 -6 19 C-6.66 18.67 -7.32 18.34 -8 18 C-6.02 18 -4.04 18 -2 18 C-2.3403125 16.6078125 -2.3403125 16.6078125 -2.6875 15.1875 C-3.49511216 9.88345258 -1.60271377 5.00734869 0 0 Z " fill="#111C42" transform="translate(249,211)"/>
<path d="M0 0 C1.98 0 3.96 0 6 0 C6 9.24 6 18.48 6 28 C3.36 28 0.72 28 -2 28 C-2.33 26.68 -2.66 25.36 -3 24 C-3.66 24 -4.32 24 -5 24 C-5.99 21.69 -6.98 19.38 -8 17 C-6.68 17 -5.36 17 -4 17 C-4 18.65 -4 20.3 -4 22 C-3.01 22.33 -2.02 22.66 -1 23 C-1 24.32 -1 25.64 -1 27 C0.98 27 2.96 27 5 27 C5 18.42 5 9.84 5 1 C3.68 1 2.36 1 1 1 C1 5.95 1 10.9 1 16 C0.67 16 0.34 16 0 16 C0 10.72 0 5.44 0 0 Z " fill="#97D54E" transform="translate(406,198)"/>
<path d="M0 0 C0.33 0 0.66 0 1 0 C1 3.96 1 7.92 1 12 C2.32 11.67 3.64 11.34 5 11 C2.80210057 15.51790439 0.72061191 17.27516103 -4 19 C-8.43756964 19.37606522 -10.25816125 19.49455917 -14 17 C-13.38511719 16.89042969 -12.77023437 16.78085938 -12.13671875 16.66796875 C-11.32847656 16.50941406 -10.52023437 16.35085937 -9.6875 16.1875 C-8.88699219 16.03667969 -8.08648437 15.88585937 -7.26171875 15.73046875 C-4.76554413 14.92427764 -3.67577894 13.97947998 -2 12 C-2.99 11.67 -3.98 11.34 -5 11 C-4.360625 10.484375 -3.72125 9.96875 -3.0625 9.4375 C-0.44208319 6.34064377 -0.30610183 3.97932377 0 0 Z " fill="#64C282" transform="translate(297,209)"/>
<path d="M0 0 C0.33 1.65 0.66 3.3 1 5 C0.34 5 -0.32 5 -1 5 C-1 8.96 -1 12.92 -1 17 C-0.34 17.33 0.32 17.66 1 18 C0.67 18.66 0.34 19.32 0 20 C-1.32 19.67 -2.64 19.34 -4 19 C-4.84707918 15.08225878 -5.14497687 11.24612998 -5.25 7.25 C-5.27578125 6.30640625 -5.3015625 5.3628125 -5.328125 4.390625 C-5.21984375 3.60171875 -5.1115625 2.8128125 -5 2 C-2 0 -2 0 0 0 Z " fill="#60E19D" transform="translate(280,203)"/>
<path d="M0 0 C0.99 0 1.98 0 3 0 C3 8.58 3 17.16 3 26 C2.01 26 1.02 26 0 26 C0 17.42 0 8.84 0 0 Z " fill="#99E73B" transform="translate(374,199)"/>
<path d="M0 0 C-3.13498292 1.85776765 -5.37471432 2.20140476 -9 2 C-9 2.66 -9 3.32 -9 4 C-13.33451397 5.53099805 -17.62430079 6.63417003 -22.125 7.5625 C-27.58380211 8.68908234 -27.58380211 8.68908234 -33 10 C-32.37890625 8.09765625 -32.37890625 8.09765625 -31 6 C-28.27734375 5.05859375 -28.27734375 5.05859375 -24.9375 4.4375 C-20.10648604 3.45954032 -15.54117347 2.30452642 -10.90234375 0.6484375 C-6.8026748 -0.74898559 -4.26820171 -1.06705043 0 0 Z " fill="#092724" transform="translate(219,169)"/>
<path d="M0 0 C-0.33 0.66 -0.66 1.32 -1 2 C-1.6612085 2.02505615 -2.32241699 2.0501123 -3.00366211 2.07592773 C-5.98182305 2.19153102 -8.9596392 2.31441754 -11.9375 2.4375 C-13.49887695 2.49647461 -13.49887695 2.49647461 -15.09179688 2.55664062 C-16.57583008 2.61948242 -16.57583008 2.61948242 -18.08984375 2.68359375 C-19.46450806 2.73858032 -19.46450806 2.73858032 -20.86694336 2.79467773 C-22.9820728 2.77003864 -22.9820728 2.77003864 -24 4 C-26.33333333 4 -28.66666667 4 -31 4 C-31.763125 4.165 -32.52625 4.33 -33.3125 4.5 C-37.51871615 5.28255184 -41.7336828 5.074557 -46 5 C-46 4.67 -46 4.34 -46 4 C-30.68750291 0.91811767 -15.62449281 -0.30973664 0 0 Z " fill="#051A24" transform="translate(256,167)"/>
<path d="M0 0 C5.17781223 -0.02477057 10.35558975 -0.04289347 15.53344727 -0.05493164 C17.29387005 -0.0599517 19.05428868 -0.0667691 20.81469727 -0.07543945 C23.34913154 -0.08760703 25.88351054 -0.09325166 28.41796875 -0.09765625 C29.20149216 -0.10281754 29.98501556 -0.10797882 30.7922821 -0.11329651 C34.65591139 -0.11369066 38.245165 0.0555724 42 1 C42 1.66 42 2.32 42 3 C35.07 3 28.14 3 21 3 C21 2.67 21 2.34 21 2 C14.07 1.67 7.14 1.34 0 1 C0 0.67 0 0.34 0 0 Z " fill="#277F45" transform="translate(227,162)"/>
<path d="M0 0 C1.48828125 1.14453125 1.48828125 1.14453125 3 3 C3.29296875 5.69921875 3.29296875 5.69921875 3.1875 8.6875 C3.16042969 9.68136719 3.13335937 10.67523438 3.10546875 11.69921875 C3.07066406 12.45847656 3.03585937 13.21773437 3 14 C-2.53846154 14.36923077 -2.53846154 14.36923077 -4.875 12.5 C-5.24625 12.005 -5.6175 11.51 -6 11 C-5.54625 10.278125 -5.0925 9.55625 -4.625 8.8125 C-3.14467253 6.25039476 -2.06938302 3.74984205 -1 1 C-0.67 0.67 -0.34 0.34 0 0 Z " fill="#121B3E" transform="translate(367,195)"/>
<path d="M0 0 C5.94 0 11.88 0 18 0 C18 0.99 18 1.98 18 3 C11.07 2.505 11.07 2.505 4 2 C3.71125 3.44375 3.4225 4.8875 3.125 6.375 C2.25 10.75 2.25 10.75 0 13 C0 8.71 0 4.42 0 0 Z " fill="#28E1F6" transform="translate(177,199)"/>
<path d="M0 0 C1.23556641 0.01740234 1.23556641 0.01740234 2.49609375 0.03515625 C3.32238281 0.04417969 4.14867188 0.05320313 5 0.0625 C5.63808594 0.07410156 6.27617188 0.08570313 6.93359375 0.09765625 C7.26359375 1.08765625 7.59359375 2.07765625 7.93359375 3.09765625 C5.29359375 3.09765625 2.65359375 3.09765625 -0.06640625 3.09765625 C-0.06640625 6.72765625 -0.06640625 10.35765625 -0.06640625 14.09765625 C-3.69640625 14.09765625 -7.32640625 14.09765625 -11.06640625 14.09765625 C-11.06640625 10.46765625 -11.06640625 6.83765625 -11.06640625 3.09765625 C-10.73640625 3.09765625 -10.40640625 3.09765625 -10.06640625 3.09765625 C-10.06640625 6.39765625 -10.06640625 9.69765625 -10.06640625 13.09765625 C-9.28265625 12.91203125 -8.49890625 12.72640625 -7.69140625 12.53515625 C-5.06640625 12.09765625 -5.06640625 12.09765625 -3.06640625 13.09765625 C-3.07800781 12.24300781 -3.08960937 11.38835937 -3.1015625 10.5078125 C-3.11058594 9.40308594 -3.11960937 8.29835937 -3.12890625 7.16015625 C-3.14050781 6.05800781 -3.15210937 4.95585937 -3.1640625 3.8203125 C-3.03217531 0.14329751 -3.03217531 0.14329751 0 0 Z " fill="#042A4D" transform="translate(97.06640625,193.90234375)"/>
<path d="M0 0 C0.66 0.33 1.32 0.66 2 1 C3.53668865 1.22467831 5.07968054 1.40796805 6.625 1.5625 C7.44226563 1.64628906 8.25953125 1.73007813 9.1015625 1.81640625 C9.72804688 1.87699219 10.35453125 1.93757812 11 2 C11.33 2.99 11.66 3.98 12 5 C11.24074219 5.06058594 10.48148438 5.12117187 9.69921875 5.18359375 C8.70535156 5.26738281 7.71148437 5.35117188 6.6875 5.4375 C5.70136719 5.51871094 4.71523437 5.59992188 3.69921875 5.68359375 C0.90624401 5.91812559 0.90624401 5.91812559 -2 7 C-2 8.98 -2 10.96 -2 13 C-2.99 13 -3.98 13 -5 13 C-5 10.36 -5 7.72 -5 5 C-3.68 5 -2.36 5 -1 5 C-0.67 3.35 -0.34 1.7 0 0 Z " fill="#2BE0F5" transform="translate(85,209)"/>
<path d="M0 0 C8.58 0 17.16 0 26 0 C26 0.99 26 1.98 26 3 C28.31 3 30.62 3 33 3 C33 3.33 33 3.66 33 4 C25.34125934 5.24063784 17.74288354 5.11179358 10 5.0625 C8.63932456 5.05747487 7.27864733 5.05291376 5.91796875 5.04882812 C2.61193275 5.03710459 -0.69401001 5.02069427 -4 5 C-4 4.67 -4 4.34 -4 4 C4.91 3.67 13.82 3.34 23 3 C23.33 2.34 23.66 1.68 24 1 C16.08 1 8.16 1 0 1 C0 0.67 0 0.34 0 0 Z " fill="#2C80B8" transform="translate(268,254)"/>
<path d="M0 0 C0.66 0.33 1.32 0.66 2 1 C3.64049293 7.05720465 2.29807462 11.27428866 0 17 C-2.67550292 14.32449708 -2.83209389 12.05120106 -3.625 8.375 C-4.01558594 6.59222656 -4.01558594 6.59222656 -4.4140625 4.7734375 C-4.60742188 3.85820312 -4.80078125 2.94296875 -5 2 C-2.625 0.9375 -2.625 0.9375 0 0 Z " fill="#112E47" transform="translate(258,196)"/>
<path d="M0 0 C4.62 0 9.24 0 14 0 C14 0.33 14 0.66 14 1 C9.71 1 5.42 1 1 1 C1.33 7.6 1.66 14.2 2 21 C2.66 21.33 3.32 21.66 4 22 C4.33 21.34 4.66 20.68 5 20 C5 22.64 5 25.28 5 28 C3.35 28 1.7 28 0 28 C0 18.76 0 9.52 0 0 Z " fill="#80DD7C" transform="translate(312,198)"/>
<path d="M0 0 C7.92 0 15.84 0 24 0 C24 1.65 24 3.3 24 5 C21.03 5 18.06 5 15 5 C15 4.34 15 3.68 15 3 C15.66 3 16.32 3 17 3 C17 2.34 17 1.68 17 1 C11.72 1 6.44 1 1 1 C1 1.99 1 2.98 1 4 C3.31 4 5.62 4 8 4 C8 4.33 8 4.66 8 5 C5.36 5 2.72 5 0 5 C0 3.35 0 1.7 0 0 Z " fill="#3DD8E2" transform="translate(202,198)"/>
<path d="M0 0 C1.65 0 3.3 0 5 0 C5 0.66 5 1.32 5 2 C7.97 2.495 7.97 2.495 11 3 C11 3.33 11 3.66 11 4 C9.2675 3.938125 9.2675 3.938125 7.5 3.875 C4.18176331 4.23580648 3.11934995 4.87983118 0.72265625 7.29296875 C-0.69957371 9.11640643 -2.08648882 10.96803625 -3.43359375 12.84765625 C-4.20896484 13.91306641 -4.20896484 13.91306641 -5 15 C-5.33 15 -5.66 15 -6 15 C-6 11.37 -6 7.74 -6 4 C-3.525 5.485 -3.525 5.485 -1 7 C-0.67 4.69 -0.34 2.38 0 0 Z " fill="#1E392C" transform="translate(354,193)"/>
<path d="M0 0 C0.33 0 0.66 0 1 0 C1 1.98 1 3.96 1 6 C2.65 5.67 4.3 5.34 6 5 C6.33 6.65 6.66 8.3 7 10 C6.01 10.33 5.02 10.66 4 11 C4 11.99 4 12.98 4 14 C2.68 14 1.36 14 0 14 C-0.39180108 12.42074025 -0.76280736 10.83631206 -1.125 9.25 C-1.33382812 8.36828125 -1.54265625 7.4865625 -1.7578125 6.578125 C-2.03088304 3.67124507 -1.53508028 2.43338652 0 0 Z " fill="#50E3B4" transform="translate(255,211)"/>
<path d="M0 0 C0.66 0.33 1.32 0.66 2 1 C4.63828852 1.96737246 5.60607414 2.16413578 8.25 1.0625 C8.8275 0.711875 9.405 0.36125 10 0 C10.33 0.66 10.66 1.32 11 2 C11.66 2 12.32 2 13 2 C12.34 3.65 11.68 5.3 11 7 C10.34 6.67 9.68 6.34 9 6 C6.6670134 5.95977609 4.33293334 5.95679753 2 6 C1.67 6.66 1.34 7.32 1 8 C0.34 8 -0.32 8 -1 8 C-0.67 6.68 -0.34 5.36 0 4 C-1.32 4 -2.64 4 -4 4 C-3.67 3.01 -3.34 2.02 -3 1 C-2.01 0.67 -1.02 0.34 0 0 Z " fill="#0C1A3B" transform="translate(244,192)"/>
<path d="M0 0 C4.00375452 1.95928413 6.43847766 4.78257808 8.9375 8.4375 C10.15189799 12.08069397 10.54880827 15.64593325 9.9375 19.4375 C8.9475 20.7575 7.9575 22.0775 6.9375 23.4375 C6.9375 18.1575 6.9375 12.8775 6.9375 7.4375 C5.9475 7.4375 4.9575 7.4375 3.9375 7.4375 C3.6075 6.7775 3.2775 6.1175 2.9375 5.4375 C1.9475 5.1075 0.9575 4.7775 -0.0625 4.4375 C-0.0625 3.4475 -0.0625 2.4575 -0.0625 1.4375 C-4.3525 1.4375 -8.6425 1.4375 -13.0625 1.4375 C-8.68179782 -1.48296812 -5.0632302 -0.92998106 0 0 Z " fill="#5BAB78" transform="translate(295.0625,196.5625)"/>
<path d="M0 0 C0 3.334435 -0.73077534 4.9271403 -2 8 C-3.03020728 10.9901138 -4.0176058 13.99387376 -5 17 C-5.99 16.67 -6.98 16.34 -8 16 C-8.77734375 13.3359375 -8.77734375 13.3359375 -9 10 C-7.12890625 7.2265625 -7.12890625 7.2265625 -4.5625 4.625 C-3.29599609 3.31402344 -3.29599609 3.31402344 -2.00390625 1.9765625 C-1.34261719 1.32429687 -0.68132812 0.67203125 0 0 Z " fill="#1D3236" transform="translate(364,199)"/>
<path d="M0 0 C0.33 0 0.66 0 1 0 C1 7.92 1 15.84 1 24 C1.99 24 2.98 24 4 24 C4 22.02 4 20.04 4 18 C4.66 18 5.32 18 6 18 C6 21.3 6 24.6 6 28 C4.02 28 2.04 28 0 28 C0 18.76 0 9.52 0 0 Z " fill="#32D2E5" transform="translate(79,198)"/>
<path d="M0 0 C6.93 0.495 6.93 0.495 14 1 C14 1.33 14 1.66 14 2 C10.04 2 6.08 2 2 2 C2 3.98 2 5.96 2 8 C3.65 8 5.3 8 7 8 C7 8.99 7 9.98 7 11 C3.78548731 12.60725635 0.56387464 12.05748185 -3 12 C-3.33 11.34 -3.66 10.68 -4 10 C-2.68 9.67 -1.36 9.34 0 9 C0 6.03 0 3.06 0 0 Z " fill="#234023" transform="translate(433,209)"/>
<path d="M0 0 C1.65 0 3.3 0 5 0 C5 9.24 5 18.48 5 28 C2.69 28 0.38 28 -2 28 C-2.33 27.01 -2.66 26.02 -3 25 C-2.34 25 -1.68 25 -1 25 C-1 25.66 -1 26.32 -1 27 C0.65 27 2.3 27 4 27 C4 18.75 4 10.5 4 2 C3.01 2.495 3.01 2.495 2 3 C1.53045739 6.04581269 1.53045739 6.04581269 1.375 9.5625 C1.26285156 11.35880859 1.26285156 11.35880859 1.1484375 13.19140625 C1.09945312 14.11824219 1.05046875 15.04507813 1 16 C0.67 16 0.34 16 0 16 C0 10.72 0 5.44 0 0 Z " fill="#33D8EE" transform="translate(161,198)"/>
<path d="M0 0 C0.66 0.33 1.32 0.66 2 1 C1.690625 1.598125 1.38125 2.19625 1.0625 2.8125 C-0.10209704 5.08956772 -0.10209704 5.08956772 -1 8 C-1.99 8 -2.98 8 -4 8 C-3.88655624 10.1464753 -3.75893655 12.29220592 -3.625 14.4375 C-3.55539062 15.63246094 -3.48578125 16.82742187 -3.4140625 18.05859375 C-3.27742188 19.02925781 -3.14078125 19.99992187 -3 21 C-2.34 21.33 -1.68 21.66 -1 22 C-1.99 22.33 -2.98 22.66 -4 23 C-4 22.34 -4 21.68 -4 21 C-4.66 21 -5.32 21 -6 21 C-6.92017937 8.71390135 -6.92017937 8.71390135 -4.6640625 4.51171875 C-3 2.625 -3 2.625 0 0 Z " fill="#7BB145" transform="translate(425,199)"/>
<path d="M0 0 C-1.39332574 3.36720387 -2.9789286 4.9859524 -6 7 C-6.33 6.34 -6.66 5.68 -7 5 C-7.78375 5.66 -8.5675 6.32 -9.375 7 C-12 9 -12 9 -14 9 C-11.31041421 0.93124263 -8.08047221 -0.53869815 0 0 Z " fill="#84C049" transform="translate(365,197)"/>
<path d="M0 0 C4 1 4 1 5.875 3.1875 C7 6 7 6 6.1875 9.3125 C5.795625 10.199375 5.40375 11.08625 5 12 C3.35 11.67 1.7 11.34 0 11 C0 7.37 0 3.74 0 0 Z " fill="#1C3A3C" transform="translate(318,216)"/>
<path d="M0 0 C0 0.33 0 0.66 0 1 C-3.95021734 1.21692384 -7.90087016 1.41380269 -11.85302734 1.59204102 C-13.19770072 1.65552415 -14.54212599 1.72450857 -15.88623047 1.79907227 C-17.8166439 1.90520939 -19.74819259 1.99002538 -21.6796875 2.07421875 C-23.42354736 2.16062622 -23.42354736 2.16062622 -25.20263672 2.2487793 C-26.1257666 2.16668213 -27.04889648 2.08458496 -28 2 C-28.66 1.01 -29.32 0.02 -30 -1 C-20.00267078 -2.91961007 -9.80090013 -2.75112986 0 0 Z " fill="#052846" transform="translate(226,196)"/>
<path d="M0 0 C0.66 0 1.32 0 2 0 C1.67 8.25 1.34 16.5 1 25 C0.34 25 -0.32 25 -1 25 C-1.02886984 21.02084841 -1.04675406 17.04172347 -1.0625 13.0625 C-1.07087891 11.92619141 -1.07925781 10.78988281 -1.08789062 9.61914062 C-1.09111328 8.53955078 -1.09433594 7.45996094 -1.09765625 6.34765625 C-1.10289307 5.34742432 -1.10812988 4.34719238 -1.11352539 3.31665039 C-1 1 -1 1 0 0 Z " fill="#14234B" transform="translate(383,199)"/>
<path d="M0 0 C0.33 0 0.66 0 1 0 C1 5.28 1 10.56 1 16 C-0.32 16 -1.64 16 -3 16 C-3.33 12.37 -3.66 8.74 -4 5 C-3.34 5 -2.68 5 -2 5 C-1.7834375 4.0409375 -1.7834375 4.0409375 -1.5625 3.0625 C-1 1 -1 1 0 0 Z " fill="#2AE0F6" transform="translate(102,209)"/>
<path d="M0 0 C1.32 0 2.64 0 4 0 C4.69951063 2.413762 5.38483919 4.83010234 6.0625 7.25 C6.26166016 7.93191406 6.46082031 8.61382812 6.66601562 9.31640625 C8.40009269 15.58342161 8.40009269 15.58342161 7 19 C4.24331998 15.04476345 3.4682121 11.77576339 3 7 C2.01 7 1.02 7 0 7 C0 4.69 0 2.38 0 0 Z " fill="#0B3550" transform="translate(226,197)"/>
<path d="M0 0 C2.97 0 5.94 0 9 0 C9 1.98 9 3.96 9 6 C6.03 6 3.06 6 0 6 C0 4.02 0 2.04 0 0 Z " fill="#22493D" transform="translate(318,204)"/>
<path d="M0 0 C1.04940314 3.14820941 1.066855 3.99340864 0 7 C-1.89353366 8.89353366 -3.84526801 10.4198632 -6 12 C-8.46800047 10.84826645 -10.04783565 9.95216435 -12 8 C-11.16855469 7.72736328 -11.16855469 7.72736328 -10.3203125 7.44921875 C-9.59585937 7.19785156 -8.87140625 6.94648438 -8.125 6.6875 C-7.40570313 6.44386719 -6.68640625 6.20023438 -5.9453125 5.94921875 C-3.66005095 5.03664453 -3.66005095 5.03664453 -2 2 C-1.34 2 -0.68 2 0 2 C0 1.34 0 0.68 0 0 Z " fill="#0E1C3A" transform="translate(305,219)"/>
<path d="M0 0 C12.70720721 6.21171171 12.70720721 6.21171171 13.8125 9.1875 C13.874375 9.785625 13.93625 10.38375 14 11 C7.375 11.25 7.375 11.25 4 9 C2.68 9 1.36 9 0 9 C0 8.34 0 7.68 0 7 C2.33333333 7 4.66666667 7 7 7 C7 6.34 7 5.68 7 5 C5.68 5.33 4.36 5.66 3 6 C0 2.25 0 2.25 0 0 Z " fill="#084063" transform="translate(113,210)"/>
<path d="M0 0 C0.33 0 0.66 0 1 0 C1.02684679 2.64590014 1.04676357 5.29153096 1.0625 7.9375 C1.07087891 8.69224609 1.07925781 9.44699219 1.08789062 10.22460938 C1.09652441 12.14994313 1.05224333 14.07535581 1 16 C0 17 0 17 -2.72265625 17.09765625 C-3.82480469 17.08605469 -4.92695312 17.07445312 -6.0625 17.0625 C-7.16722656 17.05347656 -8.27195312 17.04445312 -9.41015625 17.03515625 C-10.69212891 17.01775391 -10.69212891 17.01775391 -12 17 C-12 16.67 -12 16.34 -12 16 C-8.7 15.67 -5.4 15.34 -2 15 C-2 14.34 -2 13.68 -2 13 C-4.97 13 -7.94 13 -11 13 C-11.33 12.34 -11.66 11.68 -12 11 C-6.555 10.505 -6.555 10.505 -1 10 C-0.67 6.7 -0.34 3.4 0 0 Z " fill="#32CAE1" transform="translate(98,198)"/>
<path d="M0 0 C2.0839403 0.11443603 4.16716493 0.24195547 6.25 0.375 C7.41015625 0.44460937 8.5703125 0.51421875 9.765625 0.5859375 C12.70694334 0.96248308 14.49949011 1.4774123 17 3 C16.01 3.495 16.01 3.495 15 4 C14.01 3.67 13.02 3.34 12 3 C8.33888395 2.72880622 5.60324036 2.79017727 2.125 4 C-1.09255471 7.02828679 -0.7866492 9.66186715 -1 14 C-1.66 13.67 -2.32 13.34 -3 13 C-3 10.36 -3 7.72 -3 5 C-2.34 5 -1.68 5 -1 5 C-0.67 3.35 -0.34 1.7 0 0 Z " fill="#093052" transform="translate(113,194)"/>
<path d="M0 0 C1.65 0 3.3 0 5 0 C3.68 0.33 2.36 0.66 1 1 C1 9.58 1 18.16 1 27 C1.99 27 2.98 27 4 27 C3.979375 25.906875 3.95875 24.81375 3.9375 23.6875 C4 20 4 20 5 17 C5.99 17 6.98 17 8 17 C7.5359375 17.7734375 7.5359375 17.7734375 7.0625 18.5625 C5.70940713 21.66665423 5.38640576 24.65115007 5 28 C3.35 28 1.7 28 0 28 C0 18.76 0 9.52 0 0 Z " fill="#91DD5A" transform="translate(342,198)"/>
<path d="M0 0 C1.98 0 3.96 0 6 0 C6.50471197 1.76949612 7.00360685 3.54065223 7.5 5.3125 C7.7784375 6.29863281 8.056875 7.28476563 8.34375 8.30078125 C9 11 9 11 9 14 C10.32 13.67 11.64 13.34 13 13 C13.33 11.68 13.66 10.36 14 9 C14.66 10.98 15.32 12.96 16 15 C13.36 15 10.72 15 8 15 C6.18757677 10.9811485 4.66498383 7.38889325 4 3 C2.68 2.67 1.36 2.34 0 2 C0 1.34 0 0.68 0 0 Z " fill="#75C667" transform="translate(318,212)"/>
<path d="M0 0 C3.96 0 7.92 0 12 0 C12 0.33 12 0.66 12 1 C8.7 1 5.4 1 2 1 C2 1.99 2 2.98 2 4 C6.29 4 10.58 4 15 4 C15 4.66 15 5.32 15 6 C10.05 6 5.1 6 0 6 C0 4.02 0 2.04 0 0 Z " fill="#095372" transform="translate(182,215)"/>
<path d="M0 0 C-5.04798839 5.68096499 -14.69099982 7.24259066 -22 8 C-24.29296875 7.546875 -24.29296875 7.546875 -26 7 C-22.94652995 5.62101353 -20.02037789 4.76647517 -16.75 4.125 C-12.46798181 3.24425044 -8.83400198 1.6792519 -4.9453125 -0.29296875 C-3 -1 -3 -1 0 0 Z " fill="#0B2148" transform="translate(340,241)"/>
<path d="M0 0 C0.99 0.66 1.98 1.32 3 2 C2.01 3.485 2.01 3.485 1 5 C0.70547416 7.38677076 0.5071783 9.78626094 0.375 12.1875 C0.30023438 13.45980469 0.22546875 14.73210937 0.1484375 16.04296875 C0.09945313 17.01878906 0.05046875 17.99460938 0 19 C0.66 19 1.32 19 2 19 C2 19.66 2 20.32 2 21 C2.99 21.33 3.98 21.66 5 22 C5 22.66 5 23.32 5 24 C5.99 24.33 6.98 24.66 8 25 C7.34 25.33 6.68 25.66 6 26 C5.34 25.67 4.68 25.34 4 25 C4 24.34 4 23.68 4 23 C2.35 23 0.7 23 -1 23 C-2.39337497 19.01744318 -1.92223761 15.0653873 -1.625 10.9375 C-1.58117187 10.21755859 -1.53734375 9.49761719 -1.4921875 8.75585938 C-1.28420385 5.64477066 -0.99032663 2.97097988 0 0 Z " fill="#1A322C" transform="translate(419,201)"/>
<path d="M0 0 C1.22589844 0.15275391 1.22589844 0.15275391 2.4765625 0.30859375 C3.41628906 0.43427734 3.41628906 0.43427734 4.375 0.5625 C4.375 1.2225 4.375 1.8825 4.375 2.5625 C3.715 2.5625 3.055 2.5625 2.375 2.5625 C2.375 3.2225 2.375 3.8825 2.375 4.5625 C-0.925 4.5625 -4.225 4.5625 -7.625 4.5625 C-7.295 3.2425 -6.965 1.9225 -6.625 0.5625 C-4.10446405 -0.69776798 -2.7707902 -0.35624445 0 0 Z " fill="#67E095" transform="translate(290.625,197.4375)"/>
<path d="M0 0 C3.3 0 6.6 0 10 0 C10.33 1.32 10.66 2.64 11 4 C7.04 4 3.08 4 -1 4 C-0.67 2.68 -0.34 1.36 0 0 Z " fill="#2CE0F2" transform="translate(119,222)"/>
<path d="M0 0 C2.36073991 0.28983341 4.66439549 0.66512231 6.97265625 1.2421875 C6.97265625 1.9021875 6.97265625 2.5621875 6.97265625 3.2421875 C5.83376953 3.22478516 5.83376953 3.22478516 4.671875 3.20703125 C3.67800781 3.19800781 2.68414062 3.18898437 1.66015625 3.1796875 C0.67402344 3.16808594 -0.31210937 3.15648437 -1.328125 3.14453125 C-4.12698224 3.11888888 -4.12698224 3.11888888 -7.02734375 4.2421875 C-7.83298013 6.34803188 -7.83298013 6.34803188 -8.21484375 8.8046875 C-8.37339844 9.63097656 -8.53195312 10.45726562 -8.6953125 11.30859375 C-8.80488281 11.94667969 -8.91445313 12.58476562 -9.02734375 13.2421875 C-9.35734375 13.2421875 -9.68734375 13.2421875 -10.02734375 13.2421875 C-10.50495569 6.19741138 -10.50495569 6.19741138 -8.52734375 2.2421875 C-5.59929803 -0.10024908 -3.70226548 -0.23528416 0 0 Z " fill="#36592F" transform="translate(436.02734375,202.7578125)"/>
<path d="M0 0 C4.95 0 9.9 0 15 0 C14.67 0.99 14.34 1.98 14 3 C9.71 3 5.42 3 1 3 C0.67 2.01 0.34 1.02 0 0 Z " fill="#2A98D6" transform="translate(277,255)"/>
<path d="M0 0 C2.2477975 2.05233685 3.0022242 3.00667261 4 6 C8.59639946 8.80622283 13.65187565 10.45147443 19 11 C19 11.33 19 11.66 19 12 C13.51665433 12.23333386 8.17383708 12.0034419 3 10 C0.57734725 7.28369237 0.05305158 5.79577376 -0.1875 2.1875 C-0.125625 1.465625 -0.06375 0.74375 0 0 Z " fill="#143A3F" transform="translate(273,217)"/>
<path d="M0 0 C0.99 0.66 1.98 1.32 3 2 C1.96939453 2.03867188 1.96939453 2.03867188 0.91796875 2.078125 C0.01691406 2.13484375 -0.88414063 2.1915625 -1.8125 2.25 C-2.70582031 2.29640625 -3.59914063 2.3428125 -4.51953125 2.390625 C-7.12178412 2.79282507 -7.12178412 2.79282507 -8.76171875 4.859375 C-10.13356786 7.06520265 -10.13356786 7.06520265 -11 10 C-11.66 10 -12.32 10 -13 10 C-13.375 7.25 -13.375 7.25 -13 4 C-8.84089138 0.14521641 -5.57992702 -0.63168985 0 0 Z " fill="#29AAC3" transform="translate(125,196)"/>
<path d="M0 0 C2.64 0.33 5.28 0.66 8 1 C8 5.29 8 9.58 8 14 C7.34 14 6.68 14 6 14 C6 14.66 6 15.32 6 16 C5.34 15.67 4.68 15.34 4 15 C4.33 14.34 4.66 13.68 5 13 C5.06996014 11.29297265 5.08440154 9.58331997 5.0625 7.875 C5.05347656 6.96492187 5.04445313 6.05484375 5.03515625 5.1171875 C5.02355469 4.41851562 5.01195312 3.71984375 5 3 C2.525 2.01 2.525 2.01 0 1 C0 0.67 0 0.34 0 0 Z " fill="#1F3D3A" transform="translate(328,197)"/>
<path d="M0 0 C0.33 0 0.66 0 1 0 C1.08074203 2.62561109 1.1403623 5.24875676 1.1875 7.875 C1.22520508 8.99455078 1.22520508 8.99455078 1.26367188 10.13671875 C1.29296875 12.3046875 1.29296875 12.3046875 1 16 C0.01 16.66 -0.98 17.32 -2 18 C-4.25681381 13.48637239 -2.29431049 7.00411816 -0.9375 2.375 C-0.4734375 1.199375 -0.4734375 1.199375 0 0 Z " fill="#0E3647" transform="translate(268,202)"/>
<path d="M0 0 C1.43655854 -0.08131463 2.8744483 -0.13933559 4.3125 -0.1875 C5.51326172 -0.23970703 5.51326172 -0.23970703 6.73828125 -0.29296875 C9 0 9 0 10.79296875 1.38671875 C12 3 12 3 12 5 C8.37 4.67 4.74 4.34 1 4 C0.67 2.68 0.34 1.36 0 0 Z " fill="#0E1F39" transform="translate(284,192)"/>
<path d="M0 0 C1.6396875 0.2165625 1.6396875 0.2165625 3.3125 0.4375 C8.529258 1.09310693 13.76234747 1.54748223 19 2 C15.375 5 15.375 5 12 5 C10.66158328 4.68770276 9.32860925 4.35169068 8 4 C5.21098266 3.38777668 2.86695445 3 0 3 C0 2.01 0 1.02 0 0 Z " fill="#0C173E" transform="translate(112,227)"/>
<path d="M0 0 C1.32 0 2.64 0 4 0 C4 2.31 4 4.62 4 7 C0.38132441 8.2062252 -2.92506251 8.10816918 -6.6875 8.0625 C-7.38939453 8.05798828 -8.09128906 8.05347656 -8.81445312 8.04882812 C-10.54300538 8.03706927 -12.27151365 8.01913454 -14 8 C-14 7.67 -14 7.34 -14 7 C-9.38 7 -4.76 7 0 7 C0 4.69 0 2.38 0 0 Z " fill="#053558" transform="translate(197,197)"/>
<path d="M0 0 C3.63 0 7.26 0 11 0 C11.33 1.32 11.66 2.64 12 4 C12.99 4.33 13.98 4.66 15 5 C15 6.65 15 8.3 15 10 C15.66 10 16.32 10 17 10 C16.67 10.99 16.34 11.98 16 13 C13.61116802 10.82335653 12.2757718 8.73815276 10.8125 5.875 C8.98936629 2.81437781 8.98936629 2.81437781 5.8984375 1.2578125 C3.44803926 0.92881712 3.44803926 0.92881712 0 1 C0 0.67 0 0.34 0 0 Z " fill="#07355B" transform="translate(141,196)"/>
<path d="M0 0 C4.62 0 9.24 0 14 0 C14 0.66 14 1.32 14 2 C11.73957429 3.13021285 10.07089004 3.26934344 7.5625 3.5 C4.78512294 3.75623248 2.67337533 4.10887489 0 5 C0 4.34 0 3.68 0 3 C-0.99 2.67 -1.98 2.34 -3 2 C-2.01 2 -1.02 2 0 2 C0 1.34 0 0.68 0 0 Z " fill="#16282D" transform="translate(428,227)"/>
<path d="M0 0 C4.19174654 1.04793663 5.21592961 1.91763635 8 5 C7.67 5.66 7.34 6.32 7 7 C5.35 5.68 3.7 4.36 2 3 C2 5.31 2 7.62 2 10 C-0.97 10 -3.94 10 -7 10 C-7 9.67 -7 9.34 -7 9 C-4.69 9 -2.38 9 0 9 C0 6.03 0 3.06 0 0 Z " fill="#26482C" transform="translate(348,218)"/>
<path d="M0 0 C0 0.66 0 1.32 0 2 C2.39719432 2.67958603 2.39719432 2.67958603 5 3 C5.66 2.34 6.32 1.68 7 1 C7 4.96 7 8.92 7 13 C6.67 13 6.34 13 6 13 C6 10.69 6 8.38 6 6 C4.741875 5.731875 3.48375 5.46375 2.1875 5.1875 C-0.99448801 4.40467463 -3.00244311 3.74664072 -5 1 C-2 0 -2 0 0 0 Z " fill="#12173F" transform="translate(332,193)"/>
<path d="M0 0 C2.98191427 1.04367 3.8747545 2.22328366 5.5 4.875 C2.86 4.875 0.22 4.875 -2.5 4.875 C-2.83 6.855 -3.16 8.835 -3.5 10.875 C-3.83 10.875 -4.16 10.875 -4.5 10.875 C-4.479375 9.946875 -4.45875 9.01875 -4.4375 8.0625 C-4.34230396 4.85213989 -4.34230396 4.85213989 -5.5 1.875 C-2.5 -0.125 -2.5 -0.125 0 0 Z " fill="#0C1E3A" transform="translate(263.5,192.125)"/>
<path d="M0 0 C0 0.99 0 1.98 0 3 C-1.71484375 4.31640625 -1.71484375 4.31640625 -3.9375 5.5625 C-7.06087402 7.20338711 -7.06087402 7.20338711 -9 10 C-10.70703125 10.88671875 -10.70703125 10.88671875 -12.8125 11.6875 C-13.49957031 11.95949219 -14.18664062 12.23148438 -14.89453125 12.51171875 C-17.29376496 13.06812731 -18.6894364 12.77364938 -21 12 C-20.28972656 11.81824219 -19.57945312 11.63648438 -18.84765625 11.44921875 C-17.92855469 11.19785156 -17.00945312 10.94648438 -16.0625 10.6875 C-15.14597656 10.44386719 -14.22945313 10.20023438 -13.28515625 9.94921875 C-12.15400391 9.47935547 -12.15400391 9.47935547 -11 9 C-10.67 8.01 -10.34 7.02 -10 6 C-8.02699884 4.94773272 -6.02323613 3.95211112 -4 3 C-2.64136599 2.03465478 -1.29656863 1.04722851 0 0 Z " fill="#0D2047" transform="translate(347,242)"/>
<path d="M0 0 C5.625 5.625 5.625 5.625 6 9 C3.525 8.01 3.525 8.01 1 7 C1 9.97 1 12.94 1 16 C0.67 16 0.34 16 0 16 C0 10.72 0 5.44 0 0 Z " fill="#2D4E2C" transform="translate(394,211)"/>
<path d="M0 0 C0.33 0.66 0.66 1.32 1 2 C1.66 2 2.32 2 3 2 C3.165 2.639375 3.33 3.27875 3.5 3.9375 C4.77378478 6.1671504 4.77378478 6.1671504 6.87890625 6.41796875 C7.59949219 6.48628906 8.32007813 6.55460938 9.0625 6.625 C10.361875 6.74875 11.66125 6.8725 13 7 C13.33 7.66 13.66 8.32 14 9 C10.37 9 6.74 9 3 9 C2.67 7.35 2.34 5.7 2 4 C1.34 4 0.68 4 0 4 C0 2.68 0 1.36 0 0 Z " fill="#1B3423" transform="translate(400,220)"/>
<path d="M0 0 C1.65 0 3.3 0 5 0 C5.125 7.75 5.125 7.75 4 10 C3.01 10 2.02 10 1 10 C0.67 6.7 0.34 3.4 0 0 Z " fill="#98E936" transform="translate(440,213)"/>
<path d="M0 0 C0.33 0 0.66 0 1 0 C1.33 1.65 1.66 3.3 2 5 C2.33 5 2.66 5 3 5 C3 7.31 3 9.62 3 12 C2.67 11.34 2.34 10.68 2 10 C0.35 10.33 -1.3 10.66 -3 11 C-3 9.02 -3 7.04 -3 5 C-2.34 4.67 -1.68 4.34 -1 4 C-0.34786708 1.97536745 -0.34786708 1.97536745 0 0 Z " fill="#45BE9A" transform="translate(259,206)"/>
<path d="M0 0 C1.74627478 2.61941217 2.38722388 4.03824877 3 7 C3.33 5.35 3.66 3.7 4 2 C4.66 2 5.32 2 6 2 C5.719172 3.98073365 5.42503386 5.95958448 5.125 7.9375 C4.96257812 9.03964844 4.80015625 10.14179688 4.6328125 11.27734375 C4.42398438 12.17582031 4.21515625 13.07429687 4 14 C3.01 14.495 3.01 14.495 2 15 C1.66223316 13.2508503 1.32996329 11.50063855 1 9.75 C0.814375 8.77546875 0.62875 7.8009375 0.4375 6.796875 C0 4 0 4 0 0 Z " fill="#072F44" transform="translate(239,198)"/>
<path d="M0 0 C-1 3 -1 3 -2.75 4.1875 C-5.29960574 5.10819096 -7.30923081 5.14948718 -10 5 C-10.33 4.01 -10.66 3.02 -11 2 C-3.375 0 -3.375 0 0 0 Z " fill="#69E391" transform="translate(295,221)"/>
<path d="M0 0 C1.32 0.33 2.64 0.66 4 1 C4 1.66 4 2.32 4 3 C4.763125 2.79375 5.52625 2.5875 6.3125 2.375 C9 2 9 2 12 4 C0.44594595 5.54054054 0.44594595 5.54054054 -4 3 C-2.68 3 -1.36 3 0 3 C0 2.01 0 1.02 0 0 Z " fill="#0A163B" transform="translate(226,192)"/>
<path d="M0 0 C-3.34866708 1.87852056 -6.64266572 2.76369209 -10.375 3.625 C-11.47585937 3.88539063 -12.57671875 4.14578125 -13.7109375 4.4140625 C-16.88802785 4.98005247 -19.78152858 5.10695826 -23 5 C-23 4.67 -23 4.34 -23 4 C-20.75023648 3.35334337 -18.50018033 2.70770477 -16.25 2.0625 C-14.99703125 1.70285156 -13.7440625 1.34320313 -12.453125 0.97265625 C-11.31359375 0.65167969 -10.1740625 0.33070313 -9 0 C-8.2471875 -0.2165625 -7.494375 -0.433125 -6.71875 -0.65625 C-4.31423432 -1.13715314 -2.35136812 -0.58784203 0 0 Z " fill="#0A3F22" transform="translate(219,169)"/>
<path d="M0 0 C0 0.33 0 0.66 0 1 C-1.65 1 -3.3 1 -5 1 C-5 1.66 -5 2.32 -5 3 C-11.20514474 5.13619737 -16.42684522 6.36517527 -23 6 C-23 5.67 -23 5.34 -23 5 C-22.11248047 4.81824219 -22.11248047 4.81824219 -21.20703125 4.6328125 C-16.1580272 3.56206123 -11.48192051 2.4736403 -7 -0.1875 C-4.35725581 -1.26111483 -2.69778766 -0.74938546 0 0 Z " fill="#164E7D" transform="translate(325,253)"/>
<path d="M0 0 C1.98 0.99 1.98 0.99 4 2 C4 3.32 4 4.64 4 6 C4.66 6 5.32 6 6 6 C5.67 7.32 5.34 8.64 5 10 C3.35 10 1.7 10 0 10 C0 6.7 0 3.4 0 0 Z " fill="#131F43" transform="translate(396,218)"/>
<path d="M0 0 C1.9375 0.75 1.9375 0.75 4 2 C4.75 4.125 4.75 4.125 5 6 C4.34 6 3.68 6 3 6 C2.67 6.99 2.34 7.98 2 9 C-0.46800047 7.84826645 -2.04783565 6.95216435 -4 5 C-2.35 4.67 -0.7 4.34 1 4 C0.67 2.68 0.34 1.36 0 0 Z " fill="#2BB6CC" transform="translate(128,198)"/>
<path d="M0 0 C0.33 0 0.66 0 1 0 C1.19448477 2.12437212 1.38038289 4.24953191 1.5625 6.375 C1.66691406 7.55835938 1.77132813 8.74171875 1.87890625 9.9609375 C2 13 2 13 1 15 C0.34 15 -0.32 15 -1 15 C-1.02685412 12.68756208 -1.04632841 10.3750373 -1.0625 8.0625 C-1.07410156 6.77472656 -1.08570313 5.48695313 -1.09765625 4.16015625 C-1 1 -1 1 0 0 Z " fill="#182249" transform="translate(416,207)"/>
<path d="M0 0 C0.33 1.32 0.66 2.64 1 4 C0.01 3.67 -0.98 3.34 -2 3 C-1.34 2.01 -0.68 1.02 0 0 Z M-10 4 C-7.03 4 -4.06 4 -1 4 C-4 7 -4 7 -6.04296875 7.29296875 C-8.02864583 7.1953125 -10.01432292 7.09765625 -12 7 C-11.34 6.67 -10.68 6.34 -10 6 C-10 5.34 -10 4.68 -10 4 Z " fill="#0F143A" transform="translate(415,225)"/>
<path d="M0 0 C0 6 0 12 0 18 C-1.97805311 16.36119083 -2.91505716 15.48773628 -3.36328125 12.9140625 C-3.14659686 3.14659686 -3.14659686 3.14659686 0 0 Z " fill="#54B08F" transform="translate(276,202)"/>
<path d="M0 0 C2.01822917 0.06510417 4.03645833 0.13020833 6.0546875 0.1953125 C4.0546875 2.1953125 4.0546875 2.1953125 1.4296875 3.6328125 C0.6459375 4.1484375 -0.1378125 4.6640625 -0.9453125 5.1953125 C-0.9453125 6.1853125 -0.9453125 7.1753125 -0.9453125 8.1953125 C-1.9353125 8.6903125 -1.9353125 8.6903125 -2.9453125 9.1953125 C-3.5703125 5.8203125 -3.5703125 5.8203125 -3.9453125 2.1953125 C-1.9453125 0.1953125 -1.9453125 0.1953125 0 0 Z " fill="#0E1E43" transform="translate(198.9453125,205.8046875)"/>
<path d="M0 0 C0.66 0 1.32 0 2 0 C2 0.99 2 1.98 2 3 C2.66 3 3.32 3 4 3 C4 3.66 4 4.32 4 5 C4.66 5.33 5.32 5.66 6 6 C3.525 7.485 3.525 7.485 1 9 C0.34 8.34 -0.32 7.68 -1 7 C-0.625 3.375 -0.625 3.375 0 0 Z " fill="#0F2A42" transform="translate(264,218)"/>
<path d="M0 0 C2.76223278 2.76223278 2.57856291 5.20706617 3 9 C2.34 8.01 1.68 7.02 1 6 C0.67 7.98 0.34 9.96 0 12 C-0.66 12 -1.32 12 -2 12 C-2.33 12.99 -2.66 13.98 -3 15 C-2.44854729 9.76119922 -1.57077907 5.02649303 0 0 Z " fill="#16525A" transform="translate(249,211)"/>
<path d="M0 0 C1.98 0.66 3.96 1.32 6 2 C5.67 3.32 5.34 4.64 5 6 C4.67 5.34 4.34 4.68 4 4 C2.02463255 4.34786708 2.02463255 4.34786708 0 5 C-0.33 5.66 -0.66 6.32 -1 7 C-1.99 6.67 -2.98 6.34 -4 6 C-1.125 1.125 -1.125 1.125 0 0 Z " fill="#76DA6B" transform="translate(317,213)"/>
<path d="M0 0 C2.45626573 3.27502097 4.74888288 6.58451196 7 10 C6.67 10.66 6.34 11.32 6 12 C3.525 11.01 3.525 11.01 1 10 C0.67 6.7 0.34 3.4 0 0 Z " fill="#86C145" transform="translate(395,198)"/>
<path d="M0 0 C2.55687669 0.34552388 4.57501375 0.75087013 6.8125 2.0625 C8.7634059 5.24555699 8.1807718 8.32430673 8 12 C7.67 12 7.34 12 7 12 C6.67 10.02 6.34 8.04 6 6 C5.01 5.67 4.02 5.34 3 5 C3 4.34 3 3.68 3 3 C2.34 3 1.68 3 1 3 C0.67 2.01 0.34 1.02 0 0 Z " fill="#79C564" transform="translate(326,198)"/>
<path d="M0 0 C2.31 0 4.62 0 7 0 C7.33 1.65 7.66 3.3 8 5 C7.67 4.01 7.34 3.02 7 2 C5.35 2 3.7 2 2 2 C2.33 4.97 2.66 7.94 3 11 C1.04783565 7.09567131 0.49360009 4.27786748 0 0 Z " fill="#3FAEAF" transform="translate(230,197)"/>
<path d="M0 0 C0.33 0 0.66 0 1 0 C1.33 4.62 1.66 9.24 2 14 C-1 16 -1 16 -3.1875 15.625 C-3.785625 15.41875 -4.38375 15.2125 -5 15 C-4.35546875 14.63261719 -3.7109375 14.26523438 -3.046875 13.88671875 C-0.24445365 11.30357082 -0.41106993 9.55737589 -0.25 5.8125 C-0.19328125 4.72582031 -0.1365625 3.63914063 -0.078125 2.51953125 C-0.05234375 1.68808594 -0.0265625 0.85664063 0 0 Z " fill="#284029" transform="translate(447,211)"/>
<path d="M0 0 C0.66 0.33 1.32 0.66 2 1 C2.2145758 4.14711179 2.23318878 6.44617664 1 9.375 C-2.17631878 11.95575901 -4.99445732 11.26265854 -9 11 C-9 10.67 -9 10.34 -9 10 C-7.865625 9.690625 -6.73125 9.38125 -5.5625 9.0625 C-2.21224901 8.37075469 -2.21224901 8.37075469 -1 7 C-0.63239269 4.67182036 -0.29758419 2.3381615 0 0 Z " fill="#082C31" transform="translate(295,209)"/>
<path d="M0 0 C0.66 0 1.32 0 2 0 C2.66 0.66 3.32 1.32 4 2 C4.66 1.67 5.32 1.34 6 1 C5.83628906 1.54140625 5.67257813 2.0828125 5.50390625 2.640625 C4.91409413 5.40222593 4.90390692 7.92818139 4.9375 10.75 C4.95103516 12.22726563 4.95103516 12.22726563 4.96484375 13.734375 C4.97644531 14.48203125 4.98804688 15.2296875 5 16 C2.50109523 13.50109523 2.48287362 12.01347764 1.9375 8.5625 C1.45443699 5.56431552 0.96217939 2.88653818 0 0 Z " fill="#46BFA7" transform="translate(249,210)"/>
<path d="M0 0 C0.99 0.33 1.98 0.66 3 1 C2.67 1.66 2.34 2.32 2 3 C3.32 3.33 4.64 3.66 6 4 C2.6717269 5.66413655 -0.99733973 4.81867406 -4.625 4.5625 C-5.42679687 4.51029297 -6.22859375 4.45808594 -7.0546875 4.40429688 C-9.03679103 4.27451629 -11.01844499 4.13790265 -13 4 C-13 3.67 -13 3.34 -13 3 C-9.04 3 -5.08 3 -1 3 C-0.67 2.01 -0.34 1.02 0 0 Z " fill="#0A1831" transform="translate(324,192)"/>
<path d="M0 0 C0.33 0.99 0.66 1.98 1 3 C3.64 3 6.28 3 9 3 C9 3.99 9 4.98 9 6 C3.58461538 8.21538462 3.58461538 8.21538462 0.625 7.125 C0.08875 6.75375 -0.4475 6.3825 -1 6 C-0.67 4.02 -0.34 2.04 0 0 Z " fill="#192C38" transform="translate(325,224)"/>
<path d="M0 0 C0.66 0.33 1.32 0.66 2 1 C2.625 3.5625 2.625 3.5625 3 6 C5.97 6.33 8.94 6.66 12 7 C12 7.33 12 7.66 12 8 C10.39620659 8.05416188 8.79188594 8.09286638 7.1875 8.125 C6.29417969 8.14820313 5.40085938 8.17140625 4.48046875 8.1953125 C2 8 2 8 -1 6 C-0.67 4.02 -0.34 2.04 0 0 Z " fill="#0E3B4E" transform="translate(234,220)"/>
<path d="M0 0 C6.57142857 4 6.57142857 4 8 8 C6.35 8 4.7 8 3 8 C3 7.01 3 6.02 3 5 C2.34 5 1.68 5 1 5 C0.67 3.35 0.34 1.7 0 0 Z " fill="#9BE442" transform="translate(356,218)"/>
<path d="M0 0 C1.32 0 2.64 0 4 0 C4 1.65 4 3.3 4 5 C4.99 5.33 5.98 5.66 7 6 C7.33 7.65 7.66 9.3 8 11 C7.34 11 6.68 11 6 11 C5.67 9.68 5.34 8.36 5 7 C4.34 7 3.68 7 3 7 C2.01 4.69 1.02 2.38 0 0 Z " fill="#8AC847" transform="translate(398,215)"/>
<path d="M0 0 C0.33 0 0.66 0 1 0 C1.08333357 4.8333472 0.95261487 9.23692563 0 14 C-0.99 14 -1.98 14 -3 14 C-3.33 12.02 -3.66 10.04 -4 8 C-3.34 8.66 -2.68 9.32 -2 10 C-1.34 6.7 -0.68 3.4 0 0 Z " fill="#36A29A" transform="translate(244,202)"/>
<path d="M0 0 C2 3 2 3 1.625 5.1875 C1.41875 5.785625 1.2125 6.38375 1 7 C0.34 6.67 -0.32 6.34 -1 6 C-1 7.65 -1 9.3 -1 11 C-1.99 11.495 -1.99 11.495 -3 12 C-3 9.36 -3 6.72 -3 4 C-2.34 3.67 -1.68 3.34 -1 3 C-0.67 2.01 -0.34 1.02 0 0 Z " fill="#74DE87" transform="translate(301,204)"/>
<path d="M0 0 C2.3431213 0.25561323 4.67843403 0.59270772 7 1 C7.33 1.66 7.66 2.32 8 3 C6.68 3 5.36 3 4 3 C4.99 3.99 5.98 4.98 7 6 C4.69 5.34 2.38 4.68 0 4 C0 2.68 0 1.36 0 0 Z " fill="#054A68" transform="translate(119,203)"/>
<path d="M0 0 C0.66 0 1.32 0 2 0 C2.66 2.64 3.32 5.28 4 8 C3.01 8.66 2.02 9.32 1 10 C-1.42857143 3.71428571 -1.42857143 3.71428571 0 0 Z " fill="#4DE2BB" transform="translate(251,203)"/>
<path d="M0 0 C6.93 0.495 6.93 0.495 14 1 C14 1.33 14 1.66 14 2 C10.04 2 6.08 2 2 2 C2 3.98 2 5.96 2 8 C1.34 7.67 0.68 7.34 0 7 C0 4.69 0 2.38 0 0 Z " fill="#385731" transform="translate(433,209)"/>
<path d="M0 0 C3.3 0 6.6 0 10 0 C10.66 1.32 11.32 2.64 12 4 C11 5 11 5 8.71484375 5.09765625 C7.34005859 5.08025391 7.34005859 5.08025391 5.9375 5.0625 C5.01839844 5.05347656 4.09929687 5.04445312 3.15234375 5.03515625 C2.44207031 5.02355469 1.73179688 5.01195312 1 5 C1 4.67 1 4.34 1 4 C3.64 4 6.28 4 9 4 C9 3.01 9 2.02 9 1 C6.03 1 3.06 1 0 1 C0 0.67 0 0.34 0 0 Z " fill="#32D5EE" transform="translate(118,198)"/>
<path d="M0 0 C5.94 0 11.88 0 18 0 C18 0.33 18 0.66 18 1 C16.77023437 1.09087891 16.77023437 1.09087891 15.515625 1.18359375 C13.89914062 1.30927734 13.89914062 1.30927734 12.25 1.4375 C11.18265625 1.51871094 10.1153125 1.59992188 9.015625 1.68359375 C6.10025792 1.91184891 6.10025792 1.91184891 3.734375 2.59765625 C2 3 2 3 0 2 C0 1.34 0 0.68 0 0 Z " fill="#1D4E7B" transform="translate(250,254)"/>
<path d="M0 0 C1.32 0 2.64 0 4 0 C3.67 1.32 3.34 2.64 3 4 C0.69 4.33 -1.62 4.66 -4 5 C-4.33 4.34 -4.66 3.68 -5 3 C-3.35 2.67 -1.7 2.34 0 2 C0 1.34 0 0.68 0 0 Z " fill="#10163A" transform="translate(442,227)"/>
<path d="M0 0 C0.66 0.33 1.32 0.66 2 1 C1.67 1.66 1.34 2.32 1 3 C0.65907959 8.32967208 0.65907959 8.32967208 3 13 C-0.875 12.125 -0.875 12.125 -2 11 C-1.93621032 9.32987017 -1.79971885 7.66219015 -1.625 6 C-1.53476562 5.0925 -1.44453125 4.185 -1.3515625 3.25 C-1 1 -1 1 0 0 Z " fill="#162D33" transform="translate(429,206)"/>
<path d="M0 0 C1.98 0 3.96 0 6 0 C6 1.65 6 3.3 6 5 C3.36 5 0.72 5 -2 5 C-1.67 4.360625 -1.34 3.72125 -1 3.0625 C0.07271225 1.23205433 0.07271225 1.23205433 0 0 Z " fill="#40D5D5" transform="translate(220,198)"/>
<path d="M0 0 C0.33 0.99 0.66 1.98 1 3 C-1.97 3 -4.94 3 -8 3 C-8.33 3.66 -8.66 4.32 -9 5 C-9 3.68 -9 2.36 -9 1 C-6.04335481 -0.4783226 -3.25770263 -0.06032783 0 0 Z " fill="#031E45" transform="translate(85,194)"/>
<path d="M0 0 C1.65 0 3.3 0 5 0 C5 0.66 5 1.32 5 2 C7.97 2.495 7.97 2.495 11 3 C11 3.33 11 3.66 11 4 C7.37 4.33 3.74 4.66 0 5 C0 3.35 0 1.7 0 0 Z " fill="#15252E" transform="translate(354,193)"/>
<path d="M0 0 C-3.004344 2.559256 -5.18782321 3.23756464 -9 4 C-11.26454073 5.46771271 -11.26454073 5.46771271 -13 7 C-12.5625 4.6875 -12.5625 4.6875 -11 2 C-3.50708215 -1.75354108 -3.50708215 -1.75354108 0 0 Z " fill="#0C3225" transform="translate(196,168)"/>
<path d="M0 0 C0.66 0.33 1.32 0.66 2 1 C2.99 1 3.98 1 5 1 C4.1875 2.9375 4.1875 2.9375 3 5 C2.01 5.33 1.02 5.66 0 6 C-1.32 4.68 -2.64 3.36 -4 2 C-2.125 0.9375 -2.125 0.9375 0 0 Z " fill="#162740" transform="translate(297,225)"/>
<path d="M0 0 C3 2 3 2 3.6875 4.625 C3.790625 5.40875 3.89375 6.1925 4 7 C2.35 7 0.7 7 -1 7 C-1.625 4.625 -1.625 4.625 -2 2 C-1.34 1.34 -0.68 0.68 0 0 Z " fill="#87E165" transform="translate(328,219)"/>
<path d="M0 0 C4.77777778 4.77777778 4.77777778 4.77777778 5 10 C4.01 11.485 4.01 11.485 3 13 C2.01 8.71 1.02 4.42 0 0 Z " fill="#0E394A" transform="translate(253,198)"/>
<path d="M0 0 C1.32 0 2.64 0 4 0 C5.125 2.3125 5.125 2.3125 6 5 C5.01 6.485 5.01 6.485 4 8 C3.01 8 2.02 8 1 8 C1 7.34 1 6.68 1 6 C1.66 6 2.32 6 3 6 C2.01 4.02 1.02 2.04 0 0 Z " fill="#093559" transform="translate(130,198)"/>
<path d="M0 0 C0.9075 0.185625 1.815 0.37125 2.75 0.5625 C5.68314324 0.95734621 7.2644657 0.94691572 10 0 C10 0.99 10 1.98 10 3 C8.95199219 3.09087891 8.95199219 3.09087891 7.8828125 3.18359375 C6.97273437 3.26738281 6.06265625 3.35117188 5.125 3.4375 C4.22007812 3.51871094 3.31515625 3.59992188 2.3828125 3.68359375 C-0.01110861 3.86989285 -0.01110861 3.86989285 -2 5 C-1.34 3.35 -0.68 1.7 0 0 Z " fill="#09153D" transform="translate(141,193)"/>
<path d="M0 0 C-2.69412214 2.69412214 -5.35895642 2.99557418 -9 4 C-10.35350594 4.62469505 -11.69934483 5.2716331 -13 6 C-11.40551709 2.6338694 -10.49046486 1.2295793 -7.0625 -0.375 C-4.15508914 -0.96834915 -2.72233025 -1.0470501 0 0 Z " fill="#081527" transform="translate(194,178)"/>
<path d="M0 0 C0 0.33 0 0.66 0 1 C-1.93475671 1.53093324 -3.87293155 2.04942317 -5.8125 2.5625 C-7.43091797 2.99755859 -7.43091797 2.99755859 -9.08203125 3.44140625 C-12 4 -12 4 -15 3 C-11.07677056 -0.92322944 -5.25785342 -0.10515707 0 0 Z " fill="#0C4925" transform="translate(215,163)"/>
<path d="M0 0 C-0.33 0.99 -0.66 1.98 -1 3 C-3.97 3 -6.94 3 -10 3 C-10.33 2.34 -10.66 1.68 -11 1 C-3.375 0 -3.375 0 0 0 Z " fill="#8CC74A" transform="translate(441,220)"/>
<path d="M0 0 C0.33 0 0.66 0 1 0 C1 2.31 1 4.62 1 7 C-0.32 7 -1.64 7 -3 7 C-3 5.02 -3 3.04 -3 1 C-2.01 1.33 -1.02 1.66 0 2 C0 1.34 0 0.68 0 0 Z " fill="#7AE474" transform="translate(316,218)"/>
<path d="M0 0 C2.475 0.99 2.475 0.99 5 2 C4.525625 2.5775 4.05125 3.155 3.5625 3.75 C2.03264756 5.95298751 1.55661048 7.42770302 1 10 C0.63883954 8.5225254 0.28624952 7.04295325 -0.0625 5.5625 C-0.25972656 4.73878906 -0.45695313 3.91507813 -0.66015625 3.06640625 C-0.82837891 2.04353516 -0.82837891 2.04353516 -1 1 C-0.67 0.67 -0.34 0.34 0 0 Z " fill="#2ADBEF" transform="translate(156,213)"/>
<path d="M0 0 C1.32 0 2.64 0 4 0 C4 1.98 4 3.96 4 6 C2.68 6 1.36 6 0 6 C0 4.02 0 2.04 0 0 Z " fill="#31DFF2" transform="translate(99,198)"/>
<path d="M0 0 C0.66 0.33 1.32 0.66 2 1 C-0.85276137 3.93200474 -3.65079784 6.64315404 -7 9 C-6.82374165 6.62051228 -6.30280227 5.29774151 -4.59765625 3.62109375 C-3.09350908 2.37884514 -1.54870149 1.18623944 0 0 Z " fill="#091828" transform="translate(183,170)"/>
<path d="M0 0 C3.96 0 7.92 0 12 0 C11.01 1.485 11.01 1.485 10 3 C2.25 2.25 2.25 2.25 0 0 Z " fill="#3985BB" transform="translate(254,255)"/>
<path d="M0 0 C0.99 0.33 1.98 0.66 3 1 C3.33 2.65 3.66 4.3 4 6 C2.68 6.33 1.36 6.66 0 7 C0 4.69 0 2.38 0 0 Z " fill="#141D44" transform="translate(350,221)"/>
<path d="M0 0 C0.99 0.33 1.98 0.66 3 1 C3 2.65 3 4.3 3 6 C2.01 6.33 1.02 6.66 0 7 C-1 6 -1 6 -1.125 3.5 C-1 1 -1 1 0 0 Z " fill="#29E1F7" transform="translate(130,214)"/>
<path d="M0 0 C-0.66 1.32 -1.32 2.64 -2 4 C-2.66 3.67 -3.32 3.34 -4 3 C-4.33 3.33 -4.66 3.66 -5 4 C-5.66 4 -6.32 4 -7 4 C-7 3.34 -7 2.68 -7 2 C-7.99 2.33 -8.98 2.66 -10 3 C-10 2.34 -10 1.68 -10 1 C-3.375 0 -3.375 0 0 0 Z " fill="#0E1C42" transform="translate(229,204)"/>
<path d="M0 0 C0.33 0 0.66 0 1 0 C1.25 7.625 1.25 7.625 -1 11 C-2.26264601 6.70700357 -1.62950412 4.12168689 0 0 Z " fill="#13414A" transform="translate(268,202)"/>
<path d="M0 0 C0.66 0 1.32 0 2 0 C2.33 1.98 2.66 3.96 3 6 C2.01 6.33 1.02 6.66 0 7 C0 6.01 0 5.02 0 4 C-0.66 4 -1.32 4 -2 4 C-1.34 2.68 -0.68 1.36 0 0 Z " fill="#142142" transform="translate(401,198)"/>
<path d="M0 0 C1.875 0.1875 1.875 0.1875 4 1 C5.125 3.4375 5.125 3.4375 6 6 C6.66 6.66 7.32 7.32 8 8 C7.01 8 6.02 8 5 8 C3.61328125 6.50390625 3.61328125 6.50390625 2.3125 4.5625 C1.87550781 3.92441406 1.43851562 3.28632813 0.98828125 2.62890625 C0 1 0 1 0 0 Z " fill="#1D3828" transform="translate(359,216)"/>
<path d="M0 0 C4 4.75 4 4.75 4 7 C5.98 7 7.96 7 10 7 C10 7.33 10 7.66 10 8 C3.59181818 8.36272727 3.59181818 8.36272727 1.0625 6.8125 C-0.32851983 4.43958382 -0.21917317 2.70313576 0 0 Z " fill="#0E3839" transform="translate(282,213)"/>
<path d="M0 0 C1 2 1 2 0.0625 5.125 C-0.288125 6.07375 -0.63875 7.0225 -1 8 C-0.34 8 0.32 8 1 8 C0.67 8.66 0.34 9.32 0 10 C-1.5625 8.8125 -1.5625 8.8125 -3 7 C-2.75546876 3.65807308 -2.39456443 2.39456443 0 0 Z " fill="#335A2B" transform="translate(358,206)"/>
<path d="M0 0 C1.32 0.33 2.64 0.66 4 1 C4 2.98 4 4.96 4 7 C3.67 6.34 3.34 5.68 3 5 C2.01 4.67 1.02 4.34 0 4 C0 2.68 0 1.36 0 0 Z " fill="#85E45C" transform="translate(329,203)"/>
<path d="M0 0 C1.45742463 -0.08096803 2.91612807 -0.13917774 4.375 -0.1875 C5.18710937 -0.22230469 5.99921875 -0.25710937 6.8359375 -0.29296875 C7.55007813 -0.19628906 8.26421875 -0.09960938 9 0 C9.66 0.99 10.32 1.98 11 3 C10.67 3.99 10.34 4.98 10 6 C9.46375 5.360625 8.9275 4.72125 8.375 4.0625 C5.55632807 1.61470596 3.66139268 1.33285388 0 1 C0 0.67 0 0.34 0 0 Z " fill="#60BC80" transform="translate(286,202)"/>
<path d="M0 0 C1.98 0 3.96 0 6 0 C5.34 1.32 4.68 2.64 4 4 C2.35 3.67 0.7 3.34 -1 3 C-0.67 2.01 -0.34 1.02 0 0 Z " fill="#0F133C" transform="translate(357,229)"/>
<path d="M0 0 C3.3 0 6.6 0 10 0 C7.82586238 2.17413762 6.93446884 2.46646021 4 3 C3.01 3 2.02 3 1 3 C0.67 2.01 0.34 1.02 0 0 Z " fill="#09143B" transform="translate(158,228)"/>
<path d="M0 0 C0.99 0 1.98 0 3 0 C3 0.66 3 1.32 3 2 C1.70990357 2.50403768 0.41786211 3.00309926 -0.875 3.5 C-1.95394531 3.91765625 -1.95394531 3.91765625 -3.0546875 4.34375 C-5 5 -5 5 -7 5 C-7 4.34 -7 3.68 -7 3 C-5.5459375 2.5359375 -5.5459375 2.5359375 -4.0625 2.0625 C-1.15934208 1.30476658 -1.15934208 1.30476658 0 0 Z " fill="#12426D" transform="translate(327,251)"/>
<path d="M0 0 C0.99 0.33 1.98 0.66 3 1 C3 3.97 3 6.94 3 10 C2.67 10 2.34 10 2 10 C0.68373308 6.38026598 0 3.90432869 0 0 Z " fill="#3DB2AB" transform="translate(234,216)"/>
<path d="M0 0 C0.99 0 1.98 0 3 0 C3 0.66 3 1.32 3 2 C4.65 2.33 6.3 2.66 8 3 C8 3.33 8 3.66 8 4 C2.46153846 4.36923077 2.46153846 4.36923077 0.125 2.5 C-0.24625 2.005 -0.6175 1.51 -1 1 C-0.67 0.67 -0.34 0.34 0 0 Z " fill="#12234A" transform="translate(117,215)"/>
<path d="M0 0 C2.31 0.33 4.62 0.66 7 1 C7.33 2.32 7.66 3.64 8 5 C4.62496331 3.8141763 2.35277269 2.72426311 0 0 Z " fill="#0B5071" transform="translate(126,209)"/>
<path d="M0 0 C0 0.66 0 1.32 0 2 C-2.64 2 -5.28 2 -8 2 C-8 1.34 -8 0.68 -8 0 C-4.71023192 -1.09658936 -3.28696233 -0.79953138 0 0 Z " fill="#05234B" transform="translate(105,195)"/>
<path d="M0 0 C0.66 0.33 1.32 0.66 2 1 C2 1.66 2 2.32 2 3 C1.34 3 0.68 3 0 3 C0 3.99 0 4.98 0 6 C-0.99 5.67 -1.98 5.34 -3 5 C-2.625 3.0625 -2.625 3.0625 -2 1 C-1.34 0.67 -0.68 0.34 0 0 Z " fill="#0E173A" transform="translate(427,192)"/>
<path d="M0 0 C2.64 0 5.28 0 8 0 C7.67 0.66 7.34 1.32 7 2 C4.67843403 2.40729228 2.3431213 2.74438677 0 3 C0 2.01 0 1.02 0 0 Z " fill="#07152A" transform="translate(386,228)"/>
<path d="M0 0 C2.97 0.33 5.94 0.66 9 1 C8.67 1.66 8.34 2.32 8 3 C4.9375 3.625 4.9375 3.625 2 4 C1.34 2.68 0.68 1.36 0 0 Z " fill="#06133A" transform="translate(77,227)"/>
<path d="M0 0 C0 2.64 0 5.28 0 8 C-1.5 6.75 -1.5 6.75 -3 5 C-3 3.68 -3 2.36 -3 1 C-1 0 -1 0 0 0 Z " fill="#254D33" transform="translate(332,213)"/>
<path d="M0 0 C0.66 0 1.32 0 2 0 C2.33 2.64 2.66 5.28 3 8 C0.9375 5.6875 0.9375 5.6875 -1 3 C-0.67 2.01 -0.34 1.02 0 0 Z " fill="#104459" transform="translate(231,208)"/>
<path d="M0 0 C1.65 0 3.3 0 5 0 C5 0.99 5 1.98 5 3 C3.68 3 2.36 3 1 3 C0.67 3.66 0.34 4.32 0 5 C0 3.35 0 1.7 0 0 Z " fill="#73E76E" transform="translate(313,199)"/>
<path d="M0 0 C-3.90028225 2.60018816 -7.47434569 2.15085514 -12 2 C-7.57703297 -0.94864468 -5.15145854 -1.28786464 0 0 Z " fill="#104F29" transform="translate(219,169)"/>
</svg>
